<?xml version="1.0" standalone="no"?>
<!DOCTYPE svg PUBLIC "-//W3C//DTD SVG 1.1//EN" "http://www.w3.org/Graphics/SVG/1.1/DTD/svg11.dtd" >
<!--
2013-9-30: Created.
-->
<svg>
<metadata>
Created by iconfont
</metadata>
<defs>

<font id="iconfont" horiz-adv-x="1024" >
  <font-face
    font-family="iconfont"
    font-weight="500"
    font-stretch="normal"
    units-per-em="1024"
    ascent="896"
    descent="-128"
  />
    <missing-glyph />
    
    <glyph glyph-name="ic_angle_double_right" unicode="&#59247;" d="M543.3 421.7L187.4 782.1c-19 20.2-50.70000001 21.2-71 2.3-0.8-0.7-1.5-1.5-2.29999999-2.3-10.4-9.50000001-16.1-23-15.70000001-37.1-0.4-14.1 5.3-27.6 15.7-37.1l319.1-323.3-319.1-323.29999999c-10.4-9.50000001-16.1-23.1-15.7-37.10000001-0.4-14.1 5.3-27.6 15.7-37.1 19-20.2 50.70000001-21.2 71-2.3 0.8 0.7 1.5 1.5 2.3 2.3L543.3 347.5c20.5 19.9 21 52.60000001 1.1 73.1-0.3 0.4-0.7 0.8-1.1 1.1z m366.3 0L553.79999999 782.1c-19 20.2-50.70000001 21.2-70.99999999 2.3-0.8-0.7-1.5-1.5-2.3-2.3-10.4-9.50000001-16.1-23-15.7-37.1-0.4-14.1 5.3-27.6 15.6-37.1l319.2-323.3-319.2-323.29999999c-10.4-9.50000001-16.1-23.1-15.6-37.10000001-0.4-14 5.3-27.6 15.6-37.1 19-20.2 50.70000001-21.2 71-2.3 0.8 0.7 1.5 1.5 2.3 2.3L909.6 347.5c20.5 19.9 21 52.60000001 1.1 73.1l-1.1 1.1z"  horiz-adv-x="1024" />

    
    <glyph glyph-name="ic_angle_double_left" unicode="&#59248;" d="M480.7 346.29999999999995L836.6-14.100000000000023c19-20.2 50.70000001-21.2 71-2.3 0.8 0.7 1.5 1.5 2.29999999 2.3 10.4 9.50000001 16.1 23 15.70000001 37.1 0.4 14.1-5.3 27.6-15.7 37.1l-319.1 323.3 319.1 323.29999999c10.4 9.50000001 16.1 23.1 15.7 37.10000001 0.4 14.1-5.3 27.6-15.7 37.1-19 20.2-50.70000001 21.2-71 2.3-0.8-0.7-1.5-1.5-2.3-2.3L480.7 420.5c-20.5-19.9-21-52.60000001-1.1-73.1 0.3-0.4 0.7-0.8 1.1-1.1z m-366.3 0L470.20000001-14.100000000000023c19-20.2 50.70000001-21.2 70.99999999-2.3 0.8 0.7 1.5 1.5 2.3 2.3 10.4 9.50000001 16.1 23 15.7 37.1 0.4 14.1-5.3 27.6-15.6 37.1l-319.2 323.3 319.2 323.29999999c10.4 9.50000001 16.1 23.1 15.6 37.10000001 0.4 14-5.3 27.6-15.6 37.1-19 20.2-50.70000001 21.2-71 2.3-0.8-0.7-1.5-1.5-2.3-2.3L114.4 420.5c-20.5-19.9-21-52.60000001-1.1-73.1l1.1-1.1z"  horiz-adv-x="1024" />

    
    <glyph glyph-name="ic_angle_double_bottom" unicode="&#59249;" d="M549.7 352.70000000000005L910.1 708.6c20.2 19 21.2 50.70000001 2.3 71-0.7 0.8-1.5 1.5-2.3 2.29999999-9.50000001 10.4-23 16.1-37.1 15.70000001-14.1 0.4-27.6-5.3-37.1-15.7l-323.3-319.1-323.29999999 319.1c-9.50000001 10.4-23.1 16.1-37.10000001 15.7-14.1 0.4-27.6-5.3-37.1-15.7-20.2-19-21.2-50.70000001-2.3-71 0.7-0.8 1.5-1.5 2.3-2.3L475.5 352.70000000000005c19.9-20.5 52.60000001-21 73.1-1.1 0.4 0.3 0.8 0.7 1.1 1.1z m0-366.3L910.1 342.20000001000005c20.2 19 21.2 50.70000001 2.3 70.99999999-0.7 0.8-1.5 1.5-2.3 2.3-9.50000001 10.4-23 16.1-37.1 15.7-14.1 0.4-27.6-5.3-37.1-15.6l-323.3-319.2-323.29999999 319.2c-9.50000001 10.4-23.1 16.1-37.10000001 15.6-14 0.4-27.6-5.3-37.1-15.6-20.2-19-21.2-50.70000001-2.3-71 0.7-0.8 1.5-1.5 2.3-2.3L475.5-13.600000000000023c19.9-20.5 52.60000001-21 73.1-1.1l1.1 1.1z"  horiz-adv-x="1024" />

    
    <glyph glyph-name="ic_angle_double_top" unicode="&#59002;" d="M474.3 415.3L113.9 59.39999999999998c-20.2-19-21.2-50.7-2.3-71 0.7-0.8 1.5-1.5 2.3-2.3 9.5-10.4 23-16.1 37.1-15.7 14.1-0.4 27.6 5.3 37.1 15.7l323.3 319.1 323.3-319.1c9.5-10.4 23.1-16.1 37.1-15.7 14.1-0.4 27.6 5.3 37.1 15.7 20.2 19 21.2 50.7 2.3 71-0.7 0.8-1.5 1.5-2.3 2.3L548.5 415.3c-19.9 20.5-52.6 21-73.1 1.1-0.4-0.3-0.8-0.7-1.1-1.1z m0 366.3L113.9 425.8c-20.2-19-21.2-50.7-2.3-71 0.7-0.8 1.5-1.5 2.3-2.3 9.5-10.4 23-16.1 37.1-15.7 14.1-0.4 27.6 5.3 37.1 15.6l323.3 319.2 323.3-319.2c9.5-10.4 23.1-16.1 37.1-15.6 14-0.4 27.6 5.3 37.1 15.6 20.2 19 21.2 50.7 2.3 71-0.7 0.8-1.5 1.5-2.3 2.3L548.5 781.6c-19.9 20.5-52.6 21-73.1 1.1l-1.1-1.1z"  horiz-adv-x="1024" />

    
    <glyph glyph-name="ic_telephone_off" unicode="&#59226;" d="M848.591794-72.66445399999998c-105.411941 2.813011-262.94156 24.754297-414.743192 113.135226a42.629013 42.629013 0 0 0 42.859932 73.702089c143.413581-83.470655 295.981944-99.479027 374.18445-101.576289a29.904487 29.904487 0 0 1 21.792339 8.388051c6.853591 6.697645 10.843188 16.72512 10.843188 27.312398v136.152134l-128.529814 85.669881-73.701089-73.752071c-25.623992-25.471045-60.710656-33.654168-91.499832-21.123574a174.501652 174.501652 0 0 0-22.092233 10.38235 42.585029 42.585029 0 0 0 40.291834 75.029622c4.859292-2.557101 9.308727-4.705346 13.246344-6.290788L719.393215 355.07117000000005a42.759967 42.759967 0 0 0 53.805084 5.370112l176.607911-117.789589a42.434082 42.434082 0 0 0 18.975329-35.444539v-158.911133c0-33.449241-13.349307-65.722894-36.672107-88.380929a114.220844 114.220844 0 0 0-80.29877-32.579546z m-719.72997 71.19597a42.538045 42.538045 0 0 0 0 60.249819l127.149299 127.200281C91.934806 370.66968599999996 60.940702 596.2753720000001 57.615871 718.309469a113.815987 113.815987 0 0 0 32.477582 83.37069c22.709016 23.371783 54.930688 36.772072 88.482893 36.772073h159.012097a42.499059 42.499059 0 0 0 35.444539-18.975329l117.684627-176.607912a42.604022 42.604022 0 0 0-5.31913-53.754102l-93.034293-93.086274c-2.353173-2.352173-4.142544-5.83095-2.914975-8.388051 10.536296-22.248178 32.272654-61.222476 66.898481-101.371362l382.830411 382.879394a42.603022 42.603022 0 0 0 60.249818-60.250818L189.06066-1.4684839999999895a42.538045 42.538045 0 0 0-60.198836 0z m22.351142 743.76552a29.104768 29.104768 0 0 1-8.337069-21.583412c2.914975-109.349557 30.074427-310.510836 173.385044-474.48219l79.736968 79.685986c-40.968597 46.337709-68.024085 92.267562-83.623602 125.255964-16.46921 34.779773-8.490015 77.072904 19.74306 105.208013l68.331977 68.279995-85.722863 128.580796h-136.152134a38.307533 38.307533 0 0 1-27.361381-10.945152z"  horiz-adv-x="1024" />

    
    <glyph glyph-name="ic_telephone_info" unicode="&#59227;" d="M57.339968 721.017517c0 64.886188 52.806435 117.643641 117.534679 117.643641h160.619532a42.451076 42.451076 0 0 0 35.459534-18.984326L488.796284 642.979952a42.628014 42.628014 0 0 0-5.373111-53.781092l-93.12726-93.132258c-2.199227-2.251209-4.093561-5.833949-2.916974-8.397048 13.252341-27.890195 43.184818-82.182108 95.327486-131.920622a583.923714 583.923714 0 0 1 133.244156-95.077574c3.325831-1.739388 7.470374 0.153946 10.029474 2.712046l91.5928 91.64878a42.692991 42.692991 0 0 0 53.781092 5.322129l176.682885-117.792589a42.456074 42.456074 0 0 0 18.983327-35.462532v-160.62753c0-64.784224-52.754454-117.490695-117.636644-117.490694-436.675481 0-792.043547 355.337077-792.043547 792.036549z m85.298012 0c0-389.673006 317.093522-706.784521 706.744536-706.784521a32.331633 32.331633 0 0 1 32.388613 32.238666V184.328197L753.134353 270.040064l-66.928471-66.932469c-29.422656-29.474638-73.474169-36.844047-109.347557-18.165614a668.393018 668.393018 0 0 0-152.996212 109.046664A535.590706 535.590706 0 0 0 310.370012 451.188379c-16.681136 35.154641-9.005834 76.399141 19.593112 105.15803l68.463931 68.416948-85.754852 128.645773H174.874647a32.364622 32.364622 0 0 1-32.236667-32.391613zM894.257739 566.836721l-69.387606 69.389606-69.330626-69.389606a42.642009 42.642009 0 0 0-60.278808 60.33179l69.330626 69.388606-69.328627 69.286641a42.642009 42.642009 0 0 0 60.278809 60.33179l69.328626-69.385607 69.387606 69.385607a42.642009 42.642009 0 0 0 60.278808-60.33179l-69.387606-69.286641 69.384607-69.388606a42.642009 42.642009 0 0 0-60.278808-60.33179z"  horiz-adv-x="1024" />

    
    <glyph glyph-name="ic_wicket_lr" unicode="&#59228;" d="M867.334814 838.301905h-710.193452a99.57402 99.57402 0 0 1-99.428083-99.428083v-710.193452a99.537036 99.537036 0 0 1 99.428083-99.426083h710.193452a99.537036 99.537036 0 0 1 99.428083 99.426083v710.193452a99.57402 99.57402 0 0 1-99.428083 99.428083zM142.940492 497.410048h738.59919v-227.260905H142.940492zM157.14536 753.078691h710.193452a14.245851 14.245851 0 0 0 14.204869-14.204869v-156.24056H142.940492V738.874822a14.245851 14.245851 0 0 0 14.204868 14.204868z m710.193452-738.599191h-710.193452a14.208867 14.208867 0 0 0-14.204868 14.20287V184.925928h738.59919v-156.243558a14.208867 14.208867 0 0 0-14.204868-14.20187z"  horiz-adv-x="1024" />

    
    <glyph glyph-name="ic_sticker" unicode="&#59229;" d="M966.589971 379.859787c0 1.306436 0.170926 2.613872 0.170927 3.920308 0 0.909607-0.454804 1.647289-0.51178 2.557896a44.868633 44.868633 0 0 1-2.273018 11.30612c-0.51078 1.362412-0.852632 2.727823-1.420387 3.978282a42.175795 42.175795 0 0 1-8.296419 12.269704L542.35109 825.8023a41.713995 41.713995 0 0 1-12.215727 8.240443 37.610766 37.610766 0 0 1-3.977283 1.419388 40.72942 40.72942 0 0 1-11.30612 2.272019c-0.909607 0.056975-1.704264 0.567755-2.613872 0.567755-1.306436 0-2.556896-0.228901-3.863332-0.228901h-0.283878C259.411218 835.802983 57.717278 632.969535 57.717278 383.777096c0-250.668801 203.911983-454.522809 454.52181-454.522809 249.248414 0 452.078864 201.637965 454.293908 450.3736z m-151.470619 52.666267c-159.479162 20.567122-233.509208 94.598168-254.133306 254.136305zM512.239088 14.4805c-203.625107 0-369.298596 165.674488-369.298596 369.299595 0 189.592164 143.685979 346.118601 327.880473 366.800674 11.646973-275.100256 133.175516-396.628799 408.274772-408.223794-20.682073-184.190496-177.264485-327.876475-366.856649-327.876475z"  horiz-adv-x="1024" />

    
    <glyph glyph-name="ic_sun" unicode="&#59230;" d="M469.079717-84.358837v28.375752a42.615605 42.615605 0 0 0 85.230211 0v-28.375752a42.615605 42.615605 0 1 0-85.230211 0z m310.755865 140.239467l-67.335935 67.232979a42.606609 42.606609 0 0 0 60.279981 60.229003l67.283957-67.182002a42.606609 42.606609 0 0 0-60.229003-60.27998z m-596.5605 0a42.681577 42.681577 0 0 0 0 60.27998l67.283957 67.182002a42.606609 42.606609 0 0 0 60.279981-60.229003l-67.335935-67.232979a42.709565 42.709565 0 0 0-60.229003 0z m101.181326 328.399249c0 125.314909 101.898017 227.263904 227.263904 227.263904 125.314909 0 227.212926-101.948995 227.212925-227.263904 0-125.365887-101.898017-227.211926-227.212925-227.211926-125.364887-0.001-227.263904 101.846039-227.263904 227.211926z m85.230211 0c0-78.32819 63.654524-142.032693 142.033693-142.032693 78.32819 0 141.981715 63.705502 141.981714 142.032693 0 78.277212-63.654524 142.033692-141.981714 142.033693-78.379168 0-142.032693-63.75648-142.032693-142.033693z m582.295658-42.589616a42.615605 42.615605 0 1 0 0 85.230211h28.375751a42.615605 42.615605 0 1 0 0-85.230211z m-908.95266 0a42.615605 42.615605 0 0 0 0 85.230211h28.38075a42.615605 42.615605 0 1 0 0-85.230211z m669.47003 243.41993a42.615605 42.615605 0 0 0 0 60.229002l67.335935 67.283958a42.588617 42.588617 0 0 0 60.229003-60.229003l-67.283958-67.283957a42.646592 42.646592 0 0 0-60.27998 0z m-461.940608 0l-67.283957 67.283957a42.588617 42.588617 0 0 0 60.229003 60.229003l67.335935-67.283958a42.606609 42.606609 0 0 0-60.279981-60.229002zM469.079717 824.542844V852.969574a42.615605 42.615605 0 0 0 85.230211 0v-28.42673a42.615605 42.615605 0 0 0-85.230211 0z"  horiz-adv-x="1024" />

    
    <glyph glyph-name="ic_turnright" unicode="&#59231;" d="M961.216297 535.488644c0.399973 0.681953 1.02193 1.247915 1.359907 1.986865a42.056125 42.056125 0 0 1 0 33.424715c-0.337977 0.73795-0.962934 1.304911-1.359907 2.04186a42.516094 42.516094 0 0 1-8.230438 11.747197l-0.339976 0.399973-255.366544 241.183513a42.512094 42.512094 0 1 1-58.396008-61.795776l177.507866-167.688537H327.622609c-148.62284-0.014999-269.554573-120.941732-269.554574-269.565573v-354.675754a42.56209 42.56209 0 0 1 85.124181 0v354.675754c0 101.693048 82.738344 184.432392 184.430393 184.432393h488.773587L638.889331 343.907741a42.512094 42.512094 0 1 1 58.396008-61.795776l255.366543 241.183513 0.339977 0.399973a42.014128 42.014128 0 0 1 8.224438 11.793193z"  horiz-adv-x="1024" />

    
    <glyph glyph-name="ic_wifi" unicode="&#59232;" d="M453.308787 42.857166c0 31.368847 26.312872 56.853722 58.699713 56.853722 32.442842 0 58.755713-25.483876 58.755713-56.853722 0-31.419847-26.312872-56.852722-58.755713-56.852723-32.386842 0-58.699713 25.432876-58.699713 56.852723z m-123.692396 170.299168a41.816796 41.816796 0 0 0 9.668952 59.565709c100.919507 71.232652 244.637805 71.232652 345.451314-0.050999a41.790796 41.790796 0 0 0 9.563953-59.56571 44.223784 44.223784 0 0 0-35.559827-17.499914 45.313779 45.313779 0 0 0-25.942873 8.18796c-70.326657 49.791757-170.982165 49.893756-241.62682-0.051a45.09978 45.09978 0 0 0-25.923873-8.14396 44.388783 44.388783 0 0 0-35.631826 17.562914zM199.265027 403.576404c-13.948932 19.342906-9.034956 45.952776 10.936947 59.360711 177.639133 119.899415 425.869921 119.899415 603.669052 0 19.919903-13.406935 24.886878-40.017805 10.937947-59.360711a44.473783 44.473783 0 0 0-36.140824-18.27391 44.98778 44.98778 0 0 0-25.150877 7.675962c-148.099277 99.838513-355.015267 99.736513-503.013544 0a44.815781 44.815781 0 0 0-61.238701 10.592948zM64.899683 590.101494c-13.899932 19.343906-8.981956 45.899776 10.989946 59.36071 128.342373 86.789576 279.193637 132.538353 436.120871 132.538353s307.831497-45.748777 436.12087-132.538353c19.919903-13.457934 24.886878-40.067804 10.936947-59.36071a44.422783 44.422783 0 0 0-36.140823-18.217911 44.98978 44.98978 0 0 0-25.150878 7.675962C784.28217 656.166171 650.920822 696.745973 512.0105 696.745973s-272.218671-40.579802-385.819116-117.186428a44.918781 44.918781 0 0 0-61.291701 10.541949z"  horiz-adv-x="1024" />

    
    <glyph glyph-name="ic_wicket_ud" unicode="&#59233;" d="M867.333814 838.301905h-710.193451a99.572021 99.572021 0 0 1-99.426084-99.428083v-710.193452a99.535037 99.535037 0 0 1 99.426084-99.426083h710.193451a99.536036 99.536036 0 0 1 99.427084 99.426083v710.193452a99.572021 99.572021 0 0 1-99.427084 99.428083zM625.87004 753.078691v-738.599191h-227.261905V753.07969zM142.940492 28.683369v710.193452a14.281835 14.281835 0 0 0 14.202869 14.204868h156.240561v-738.59919H157.143361a14.244851 14.244851 0 0 0-14.202869 14.20087z m738.597191 0a14.208867 14.208867 0 0 0-14.203869-14.202869H711.092254V753.07969h156.24156a14.244851 14.244851 0 0 0 14.203869-14.204868z"  horiz-adv-x="1024" />

    
    <glyph glyph-name="ic_window" unicode="&#59234;" d="M810.604763 853.632689h-597.377491c-86.250312 0-156.456914-70.205602-156.456914-156.456915v-597.37749c0-86.3073 70.206602-156.456914 156.456914-156.456915h597.377491c86.3073 0 156.456914 70.149614 156.456914 156.456915v597.37749c0 86.251312-70.149614 156.456914-156.456914 156.456915zM142.107857 99.794284v597.377491a71.215395 71.215395 0 0 0 71.116415 71.116416H469.244768v-739.610322H213.224272a71.178403 71.178403 0 0 0-71.116415 71.116415z m739.614321 0a71.14241 71.14241 0 0 0-71.116416-71.116415H554.584267V768.29219H810.604763a71.179403 71.179403 0 0 0 71.116415-71.116416z"  horiz-adv-x="1024" />

    
    <glyph glyph-name="ic_turnleft" unicode="&#59235;" d="M696.887386 596.823137H207.540608L385.256898 764.713669a42.561629 42.561629 0 0 1-58.462765 61.873292L71.12649 585.120188a42.389703 42.389703 0 0 1 0-61.873293l255.666644-241.465773a42.561629 42.561629 0 0 1 58.462765 61.873293L207.540608 511.600922h489.347777c101.811054 0 184.650297-82.835245 184.650298-184.649298V-28.144102a42.610608 42.610608 0 0 1 85.221215 0V326.951624c0 148.798772-121.07274 269.871512-269.872512 269.871513z"  horiz-adv-x="1024" />

    
    <glyph glyph-name="ic_videotape" unicode="&#59236;" d="M945.204385 662.742139a42.616792 42.616792 0 0 1-42.926791-0.568997l-162.835205-97.678523v4.264979a156.374236 156.374236 0 0 1-156.354236 156.354236H213.521957A156.338237 156.338237 0 0 1 57.167721 568.759598v-369.563196a156.339237 156.339237 0 0 1 156.354236-156.354236h369.566196a156.375236 156.375236 0 0 1 156.354236 156.354236v4.26498l162.836205-97.679524a42.636792 42.636792 0 0 1 64.588685 36.558822V625.61432a42.719791 42.719791 0 0 1-21.662894 37.127819zM583.088153 128.120749H213.521957a71.059653 71.059653 0 0 0-71.069653 71.070653v369.568196a71.059653 71.059653 0 0 0 71.069653 71.068653h369.566196a71.099653 71.099653 0 0 0 71.070653-71.068653v-369.563196a71.099653 71.099653 0 0 0-71.070653-71.075653z m156.354236 336.874356l142.140306 85.284583v-332.608376l-142.140306 85.284584z"  horiz-adv-x="1024" />

    
    <glyph glyph-name="ic_time" unicode="&#59237;" d="M39.140374 391.071067c0 251.268294 204.418104 455.635412 455.634413 455.635412s455.634412-204.367118 455.634412-455.635412c0-251.217308-204.418104-455.584426-455.634412-455.584427S39.140374 139.853759 39.140374 391.071067z m85.447636 0c0-204.111188 166.076588-370.187777 370.186777-370.187777 204.161175 0 370.237763 166.076588 370.237763 370.187777 0 204.162174-166.076588 370.238763-370.237763 370.238762-204.110189 0-370.186777-166.076588-370.186777-370.238762z m327.488452-17.684165V618.914765h85.396649v-210.159534l101.388277-101.389276-60.383489-60.383489z"  horiz-adv-x="1024" />

    
    <glyph glyph-name="ic_video" unicode="&#59238;" d="M213.426958-70.995278c-86.300579 0-156.426236 70.129658-156.426236 156.384236V682.616042c0 86.254579 70.125658 156.384236 156.426236 156.384236h597.197084c86.246579 0 156.372236-70.129658 156.372236-156.384236v-597.227084c0-86.254579-70.125658-156.384236-156.375236-156.384236z m-71.099653 753.61132v-597.227084a71.206652 71.206652 0 0 1 71.099653-71.099653h597.197084a71.206652 71.206652 0 0 1 71.099653 71.099653V682.616042a71.173652 71.173652 0 0 1-71.099653 71.099653h-597.197084a71.173652 71.173652 0 0 1-71.098653-71.099653z m220.562923-520.497459a42.730791 42.730791 0 0 0-21.499895 37.00982V568.873597a42.680792 42.680792 0 0 0 64.392686 36.699821l312.798472-184.845097a42.640792 42.640792 0 0 0 0-73.405642l-312.798472-184.845097a42.499792 42.499792 0 0 0-42.894791-0.357999z m63.829688 111.799455l186.270091 110.058462L426.721916 494.136962z"  horiz-adv-x="1024" />

    
    <glyph glyph-name="ic_wallet_r" unicode="&#59239;" d="M256.373748-22.587515c-108.174472 0-195.625045 83.714591-199.107028 190.46007l-0.099999 6.341969v410.897994c0 106.796479 84.687586 193.224057 192.760059 196.757039l6.399968 0.1h519.897462c108.115472 0 195.566045-83.664591 199.097028-190.45707l0.099999-6.344969v-410.897994c0-106.844478-84.635587-193.272056-192.862058-196.799039l-6.293969-0.051zM143.798298 590.335493l-0.152999-5.372974v-410.697995c0-59.562709 47.17877-108.328471 107.407475-111.194457l5.423974-0.099999h519.739462c60.330705 0 109.710464 46.616772 112.57545 106.025482l0.1 5.372974v61.865698H774.06322c-78.137618 0-141.845307 60.483705-145.017292 137.699327l-0.099999 5.679972c0 77.318622 61.148701 140.259315 139.33732 143.3803l5.679972 0.1 114.929439 0.099999v61.921698c0 59.562709-47.12777 108.328471-107.407476 111.142457l-5.321974 0.1H256.373748c-60.329705 0.003-109.760464-46.562773-112.57545-106.022482z m572.190206-202.999009l-0.511998-7.777962c0-30.241852 24.049883-55.622728 54.752733-57.618719l4.04198-0.153999h114.622441V437.539239H774.06322c-29.213857 0-54.134736-21.593895-58.074716-50.197755z m-459.614756 142.099306a43.190789 43.190789 0 0 0-30.75385 12.740938 42.246794 42.246794 0 0 0-12.485939 30.037853 42.712791 42.712791 0 0 0 39.094809 42.573792l3.837982 0.255999H412.341987c23.844884-0.051 43.238789-19.290906 43.238788-42.829791a42.773791 42.773791 0 0 0-39.094809-42.522792l-3.888981-0.255999z"  horiz-adv-x="1024" />

    
    <glyph glyph-name="ic_trash" unicode="&#59240;" d="M922.772885 667.854477H688.180144V682.059345c0 86.132822-72.308789 156.243559-161.280385 156.243559h-29.322343c-88.967598 0-161.284383-70.110737-161.284383-156.243559v-14.204868H101.701292c-24.276521 0-43.981016-19.091759-43.981016-42.612607 0-23.575824 19.708493-42.610608 43.981016-42.610607h62.346089l45.806228-510.769531c7.271861-81.302906 76.36004-142.606445 160.635664-142.606446h283.446652c84.334598 0 153.363802 61.303539 160.635664 142.606446l45.919179 510.769531h62.284116c24.28052 0 43.987013 19.034784 43.987013 42.610607-0.001999 23.520847-19.708493 42.612607-43.989012 42.612607zM424.265061 682.059345c0 39.147103 32.901798 71.020345 73.312355 71.020345h29.323343c40.408558 0 73.308357-31.873242 73.308357-71.020345v-14.204868h-175.944055zM726.94941 79.308517c-3.283583-36.984036-34.717015-64.827018-73.015484-64.827018H370.485274c-38.297469 0-69.674925 27.839983-73.017482 64.772042l-45.160507 503.38272h519.857608z"  horiz-adv-x="1024" />

    
    <glyph glyph-name="ic_wifi_off" unicode="&#59241;" d="M455.097778 42.852166a56.868722 56.868722 0 1 0 56.867722-56.847723 56.863722 56.863722 0 0 0-56.867722 56.847723z m-271.856673 12.484939a42.699792 42.699792 0 0 0 0 60.326705l654.019807 653.825808a42.665792 42.665792 0 0 0 60.349705-60.326706l-27.384866-27.374866c25.285877-14.633929 51.13575-30.547851 78.469617-49.581758a42.645792 42.645792 0 1 0-48.730762-69.999658 956.976327 956.976327 0 0 1-92.341549 56.999722L704.890558 516.514853a508.130519 508.130519 0 0 0 99.559514-53.674738 42.652792 42.652792 0 0 0-48.832762-69.946658c-36.137824 25.276877-75.961629 43.543787-117.832424 56.540723l-123.515397-123.469397c58.399715-0.510998 116.75743-18.112912 165.027194-53.26574a42.637792 42.637792 0 1 0-50.214755-68.923663c-68.488666 49.888756-165.999189 49.786757-234.129856 0.051-1.791991-1.329994-3.889981-1.99999-5.886972-3.018986L243.539811 55.337105a42.645792 42.645792 0 0 0-60.299706 0z m25.747875 348.1473a42.518792 42.518792 0 0 0 10.599948 59.35471 507.773521 507.773521 0 0 0 189.799073 81.459602c23.187887 4.399979 45.709777-10.23395 50.367754-33.309837a42.707791 42.707791 0 0 0-33.322837-50.299754 421.460942 421.460942 0 0 1-158.066228-67.799669 42.620792 42.620792 0 0 0-59.37671 10.591948zM64.691684 572.850578a42.580792 42.580792 0 0 0 10.599948 59.35471c100.015512 69.69566 240.115828 149.718269 436.725868 149.718269a695.263605 695.263605 0 0 0 118.344422-9.977951 42.782791 42.782791 0 0 0 34.704831-49.427759c-4.04398-23.178887-26.054873-38.222813-49.399759-34.640831a601.248064 601.248064 0 0 1-103.654494 8.799957c-172.859156 0-298.165544-71.839649-387.998106-134.469343a42.517792 42.517792 0 0 0-59.32271 10.642948z"  horiz-adv-x="1024" />

    
    <glyph glyph-name="ic_voice" unicode="&#59242;" d="M831.035196 832.374349a42.697081 42.697081 0 0 1-42.787075-0.341976L415.299615 610.998483H270.879488a99.455201 99.455201 0 0 1-99.314211-99.309212v-255.367543A99.420204 99.420204 0 0 1 270.879488 157.011517h144.420127l372.950505-221.090887a42.807074 42.807074 0 0 1 42.787076-0.341976 42.56709 42.56709 0 0 1 21.513529 36.997471V795.430875a42.542092 42.542092 0 0 1-21.515529 36.943474z m-63.606652-785.11433L448.613338 236.175105a42.975062 42.975062 0 0 1-21.680518 5.959593H270.878488a14.19003 14.19003 0 0 0-14.18703 14.18703V511.690271a14.228027 14.228027 0 0 0 14.18703 14.18703h156.054332a42.897068 42.897068 0 0 1 21.680518 5.899597l318.815206 188.914086z"  horiz-adv-x="1024" />

    
    <glyph glyph-name="ic_upload" unicode="&#59243;" d="M270.792306-70.10499c-117.454302 0-213.074029 95.572747-213.074029 213.078027v85.193227a42.620603 42.620603 0 1 0 85.240207 0v-85.193227a127.979759 127.979759 0 0 1 127.833822-127.834821h482.957536c70.411607 0 127.833822 57.321258 127.833821 127.834821v85.193227a42.594614 42.594614 0 1 0 85.189229 0v-85.193227c0-117.50528-95.568749-213.074029-213.02305-213.074029zM469.65147 256.591994V687.751888L358.844299 568.457381a42.622602 42.622602 0 0 0-62.485029 57.985971L481.00357 825.302516c16.260981 17.334518 46.327003 17.334518 62.485029 0L728.182877 626.443352a42.641594 42.641594 0 0 0-62.536006-57.985971l-110.752195 119.294507v-431.159894a42.620603 42.620603 0 0 0-85.240207 0z"  horiz-adv-x="1024" />

    
    <glyph glyph-name="ic_window_ud" unicode="&#59244;" d="M811.165274 846.723474H213.152793c-86.400375 0-156.624173-70.280783-156.624173-156.623173v-598.013481c0-86.398375 70.223798-156.623173 156.624173-156.623173h598.012481c86.337392 0 156.618175 70.223798 156.618174 156.623173V690.100301c0 86.342391-70.280783 156.623173-156.618174 156.623173z m-598.012481-85.43064h598.012481a71.289507 71.289507 0 0 0 71.189534-71.192533v-256.29192h-740.397548V690.100301a71.254516 71.254516 0 0 0 71.195533 71.192533z m598.012481-740.397548H213.152793a71.217526 71.217526 0 0 0-71.194533 71.192534V348.37874h740.397547v-256.29192a71.253517 71.253517 0 0 0-71.190533-71.192533z"  horiz-adv-x="1024" />

    
    <glyph glyph-name="ic_wallet" unicode="&#59245;" d="M213.426958-70.995278c-86.198579 0-156.426236 70.129658-156.426236 156.384236V682.616042c0 1.688992 0.818996 3.122985 0.971995 4.709977-0.203999 3.224984-0.971995 6.24497-0.971995 9.520953 0 78.422617 63.778689 142.153306 142.199305 142.153306h497.63357c86.299579 0 156.426236-70.129658 156.426237-156.384236v-42.691792h71.099653a42.642792 42.642792 0 0 0 42.636791-42.640791v-511.897501c0-86.251579-70.125658-156.381236-156.375236-156.381236z m-71.099653 156.384236a71.206652 71.206652 0 0 1 71.099653-71.099653h597.197084a71.206652 71.206652 0 0 1 71.099653 71.099653V554.642667H199.200027a140.799313 140.799313 0 0 0-56.868722 12.029941z m0 611.459014a56.919722 56.919722 0 0 1 56.872722-56.923722h568.731223V682.616042a71.140653 71.140653 0 0 1-71.099652 71.099653H199.200027a56.908722 56.908722 0 0 1-56.871722-56.868723z m540.327362-369.745194a56.868722 56.868722 0 1 0 56.868722-56.871722 56.842722 56.842722 0 0 0-56.868722 56.871722z m56.868722-0.051l28.408861 0.051h-28.408861z"  horiz-adv-x="1024" />

    
    <glyph glyph-name="ic_team_add" unicode="&#59246;" d="M752.113328-28.354487v85.332584h-85.910581a42.641792 42.641792 0 1 0 0 85.281583h85.911581v85.333584a42.98279 42.98279 0 0 0 85.96258 0v-85.333584h85.96258a42.641792 42.641792 0 1 0 0-85.281583h-85.96258v-85.332584a42.98279 42.98279 0 0 0-85.96258 0zM152.333256-70.995278c-29.547856 0-56.826723 12.592939-75.030633 34.599831a89.140565 89.140565 0 0 0-18.46091 74.638635c35.735826 174.560148 147.48328 274.682659 306.516503 274.682659 49.452759 0 85.189584-5.323974 115.820434-17.148916a42.564792 42.564792 0 0 0 24.545881-55.181731 43.167789 43.167789 0 0 0-55.641729-24.314881c-20.316901 7.831962-46.358774 11.312945-84.724586 11.312945-148.772274 0-202.969009-112.207452-222.254915-206.344993 2.06299-5.220975 5.052975-6.961966 9.229955-6.961966h313.32347a42.641792 42.641792 0 1 0 0-85.281583z m470.863701 554.535292a42.846791 42.846791 0 0 0 43.00679 42.640792c68.842664 0 100.246511 58.970712 100.246511 113.743444s-31.404847 113.794444-100.247511 113.794445a42.642792 42.642792 0 1 0 0 85.281583c106.125482 0 186.210091-85.588582 186.210091-199.076028 0-113.435446-80.083609-199.024028-186.210091-199.024028a42.846791 42.846791 0 0 0-43.00579 42.639792zM164.864195 639.92425c0 109.801464 89.934561 199.076028 200.494021 199.076028s200.546021-89.274564 200.546021-199.076028c0-109.750464-89.985561-199.024028-200.546021-199.024028s-200.494021 89.273564-200.494021 199.024028z m85.911581 0c0-62.655694 51.412749-113.743445 114.58244-113.743444s114.63944 51.087751 114.63944 113.743444c0 62.758694-51.469749 113.794444-114.63944 113.794445s-114.582441-51.035751-114.58244-113.794445z"  horiz-adv-x="1024" />

    
    <glyph glyph-name="ic_arrow_down" unicode="&#59059;" d="M841.323476 314.905364a42.771204 42.771204 0 0 1-60.539396-1.483348l-225.78178-236.566041V797.451308a42.794194 42.794194 0 1 1-85.587388 0v-720.595333L243.633132 313.417018a42.800191 42.800191 0 1 1-61.965769-59.056048l299.557359-313.818091a42.881156 42.881156 0 0 1 61.965769 0l299.558358 313.823089a42.922138 42.922138 0 0 1-1.425373 60.539396z"  horiz-adv-x="1024" />

    
    <glyph glyph-name="ic_arrow_lowerright" unicode="&#59060;" d="M811.767464 612.023794a42.809187 42.809187 0 0 1-42.793194-42.794194v-381.725249L242.893457 713.589161a42.788197 42.788197 0 1 1-60.48242-60.539396l526.023837-526.025836H326.769598a42.794194 42.794194 0 0 1 0-85.588388h484.997866a42.810187 42.810187 0 0 1 42.795194 42.794194V569.2296a42.810187 42.810187 0 0 1-42.795194 42.794194z"  horiz-adv-x="1024" />

    
    <glyph glyph-name="ic_" unicode="&#59061;" d="M924.309286 611.768944H765.084269l30.60493 177.653158a42.654753 42.654753 0 0 1-34.81482 49.26501c-23.32385 3.64004-45.224076-11.60494-49.263011-34.814821l-33.164255-192.103347H423.767264l30.604931 177.653158a42.654753 42.654753 0 0 1-34.81482 49.26501c-23.152895 3.64004-45.225075-11.60494-49.263011-34.814821l-33.168255-192.103347h-180.782332a42.664751 42.664751 0 0 1 0-85.329501h166.109201l-49.03707-284.432004h-173.954133a42.664751 42.664751 0 1 1 0-85.329501h159.221018l-30.604931-177.653157a42.710738 42.710738 0 0 1 34.814821-49.320996 53.003025 53.003025 0 0 1 7.28108-0.56885 42.647755 42.647755 0 0 1 41.98193 35.440655l33.107271 192.101349h254.732834l-30.60493-177.653158a42.710738 42.710738 0 0 1 34.81482-49.320996 53.003025 53.003025 0 0 1 7.28108-0.56885 42.646755 42.646755 0 0 1 41.981931 35.440656l33.113269 192.102348h180.840317a42.664751 42.664751 0 1 1 0 85.329501H701.315083l49.03707 284.432003h173.954133a42.664751 42.664751 0 0 1 0 85.329501zM614.733912 242.007439h-254.732834l49.032071 284.432004h254.732835z"  horiz-adv-x="1024" />

    
    <glyph glyph-name="ic_add" unicode="&#59062;" d="M866.732755 426.524093H554.617092V738.640757a42.56209 42.56209 0 1 1-85.123182 0v-312.116664H157.378247a42.561091 42.561091 0 0 1 0-85.122181h312.115663v-312.116664a42.56209 42.56209 0 0 1 85.123182 0V341.401912h312.115663a42.561091 42.561091 0 1 1 0 85.122181z"  horiz-adv-x="1024" />

    
    <glyph glyph-name="ic_arrow_lowerleft" unicode="&#59063;" d="M842.082142 713.589161a42.807188 42.807188 0 0 1-60.539396 0L255.461934 187.504351V569.2296a42.794194 42.794194 0 0 1-85.588388 0v-484.999865a42.810187 42.810187 0 0 1 42.795194-42.794194h484.997866a42.794194 42.794194 0 0 1 0 85.588388H316.00133l526.080812 526.024837a42.911143 42.911143 0 0 1 0 60.540395z"  horiz-adv-x="1024" />

    
    <glyph glyph-name="ic_back" unicode="&#59064;" d="M898.182606-7.779218L713.765212 127.903507a42.613087 42.613087 0 0 0 50.457551 68.685304l116.697023-85.856131V652.13867l-116.697023-85.856131a42.597088 42.597088 0 0 0-50.457551 68.634308l184.417394 135.733722a42.57109 42.57109 0 0 0 67.821363-34.290656v-709.797479a42.642085 42.642085 0 0 0-67.821363-34.342652z m-340.438728 0l-482.367026 354.875741a42.71808 42.71808 0 0 0 0 68.685304l482.367026 354.875741a42.590089 42.590089 0 0 0 67.822363-34.291656v-709.803478a42.642085 42.642085 0 0 0-67.822363-34.342652zM172.413219 381.435175l368.019842-270.702495V652.13867z"  horiz-adv-x="1024" />

    
    <glyph glyph-name="ic_1" unicode="&#59065;" d="M512.226098 840.245501c-251.682397 0-456.468404-204.784007-456.468403-456.470402S260.544701-72.695304 512.226098-72.695304a42.794194 42.794194 0 0 1 0 85.588388c-204.498133 0-370.882015 166.383882-370.882014 370.882015s166.383882 370.882015 370.882014 370.882015c325.975749 0 370.881015-178.251667 370.881016-370.882015v-71.323657a71.324656 71.324656 0 0 0-142.648313 0V569.216606a42.794194 42.794194 0 1 1-85.587389 0v-8.730164c-39.196775 31.725058-88.439135 51.524357-142.646313 51.524358-125.870686 0-228.235701-102.363016-228.235701-228.234702s102.363016-228.235701 228.2367-228.235701c66.132938 0 125.244961 28.700388 167.010607 73.777578 27.787789-44.163592 76.630325-73.777578 132.541754-73.777578 86.502986 0 156.911045 70.354083 156.911045 156.912045v71.322657c0.006997 124.787162 0.006997 456.470403-456.463406 456.470402z m0-599.117715c-78.681423 0-142.646314 63.962891-142.646313 142.647313S433.544675 526.423412 512.226098 526.423412s142.646314-63.962891 142.646314-142.647314-63.962891-142.648313-142.646314-142.648312z"  horiz-adv-x="1024" />

    
    <glyph glyph-name="ic_arrow_topleft" unicode="&#59066;" d="M842.023168 114.457451L315.941356 640.539263h381.72425a42.794194 42.794194 0 0 1 0 85.588388H212.665741a42.809187 42.809187 0 0 1-42.793194-42.794194v-484.999865a42.794194 42.794194 0 1 1 85.587388 0V579.999867l526.080812-526.081811a42.788197 42.788197 0 1 1 60.482421 60.539395z"  horiz-adv-x="1024" />

    
    <glyph glyph-name="ic_battery_charge" unicode="&#59067;" d="M606.742563 37.927083c-23.535657 0-42.671248 19.321509-42.671248 43.149038s19.134591 43.201015 42.671248 43.201015h85.239541c39.242755 0 71.068769 32.219841 71.068769 71.949382V570.32312c0 39.626586-31.824015 71.949382-71.068769 71.949381h-28.396521c-23.535657 0-42.62027 19.321509-42.62027 43.149038s19.084613 43.149038 42.62027 43.149038h28.396521c86.262092 0 156.358288-71.016791 156.358288-158.247457v-71.949382c62.676457 0 113.68704-51.696282 113.68704-115.09842 0-63.506092-51.010583-115.149397-113.68704-115.149397v-71.898404c0-87.331622-70.095196-158.300434-156.358288-158.300434z m241.593831 316.546892a28.776354 28.776354 0 0 1 0 57.54871zM386.633291 43.572602a43.563856 43.563856 0 0 0-15.86103 58.948095l134.101069 237.553606H322.472486a42.470336 42.470336 0 0 0-36.837811 21.548531 43.364943 43.364943 0 0 0-0.153933 43.045083l170.53106 302.147221c11.716851 20.667917 37.708429 28.023685 58.174435 16.057943a43.424917 43.424917 0 0 0 15.912007-58.844141L395.945198 426.424356h182.350866a42.535308 42.535308 0 0 0 36.883791-21.54953 43.749774 43.749774 0 0 0 0.199912-43.045083l-170.573041-302.147221a42.571292 42.571292 0 0 0-37.094699-21.755439 41.581727 41.581727 0 0 0-21.078736 5.645519z m-177.847845-5.645519c-86.212114 0-156.358288 70.968813-156.358288 158.299435V570.32312c0 87.231666 70.146174 158.247458 156.358288 158.247457h85.290519c23.535657 0 42.62027-19.321509 42.620271-43.149038s-19.085613-43.149038-42.620271-43.149038h-85.290519c-39.191777 0-71.068769-32.322796-71.068768-71.949381v-374.096602c0-39.73054 31.874992-71.949382 71.068768-71.949382h28.447499c23.535657 0 42.62027-19.372487 42.62027-43.201015s-19.084613-43.149038-42.62027-43.149038z"  horiz-adv-x="1024" />

    
    <glyph glyph-name="ic_arrow_up" unicode="&#59068;" d="M842.749849 513.127255L543.190491 826.950344c-16.145905 16.946553-45.816866 16.946553-61.964769 0L181.668363 513.127255a42.799192 42.799192 0 0 1 61.964769-59.056048l225.78178 236.56604v-720.538357a42.794194 42.794194 0 1 1 85.587388 0V690.637247l225.78178-236.56604a42.835176 42.835176 0 0 1 30.986383-13.237183 42.309407 42.309407 0 0 1 29.500036 11.81081 42.80319 42.80319 0 0 1 1.47935 60.482421z"  horiz-adv-x="1024" />

    
    <glyph glyph-name="ic_battery" unicode="&#59069;" d="M854.57965 497.892949v71.323657c0 86.500987-70.353083 156.911045-156.912044 156.911045H212.66774c-86.499987 0-156.911045-70.410058-156.911045-156.911045v-370.883014c0-86.56196 70.411058-156.911045 156.911045-156.911045h484.999866c86.56196 0 156.912045 70.353083 156.912044 156.911045v71.323656a114.117851 114.117851 0 1 1 0 228.234702z m-85.587388-299.558358a71.350645 71.350645 0 0 0-71.324656-71.323656H212.66774a71.385629 71.385629 0 0 0-71.321657 71.323656V569.216606a71.422613 71.422613 0 0 0 71.321657 71.323657h484.999866a71.386629 71.386629 0 0 0 71.324656-71.323657z m85.587388 156.912045v57.058925a28.529463 28.529463 0 0 0 0-57.058925z"  horiz-adv-x="1024" />

    
    <glyph glyph-name="ic_arrow_right" unicode="&#59070;" d="M955.396346 414.758483l-313.820091 299.558358a42.800191 42.800191 0 0 1-59.056048-61.965769l236.564042-225.781779H98.547891a42.794194 42.794194 0 0 1 0-85.588388h720.536358l-236.564042-225.78078a42.795194 42.795194 0 0 1 29.556012-73.777578 42.322401 42.322401 0 0 1 29.500036 11.810809l313.820091 299.558359a42.747215 42.747215 0 0 1 0 61.965769z"  horiz-adv-x="1024" />

    
    <glyph glyph-name="ic_arrow_left" unicode="&#59071;" d="M925.899308 426.549302h-720.593333l236.565041 225.781779a42.800191 42.800191 0 1 1-59.056047 61.965769L68.991879 414.738492a42.881156 42.881156 0 0 1 0-61.965769l313.82309-299.559358a42.447346 42.447346 0 0 1 29.556011-11.810809 42.767206 42.767206 0 0 1 29.500036 73.777578l-236.565041 225.78078h720.592334a42.794194 42.794194 0 1 1 0 85.588388z"  horiz-adv-x="1024" />

    
    <glyph glyph-name="ic_book" unicode="&#59072;" d="M868.839384 840.245501H626.338951c-45.080189 0-85.475438-19.400474-114.112853-49.926059-28.64841 30.526585-69.046657 49.92606-114.11885 49.926059H155.606816a99.962071 99.962071 0 0 1-99.856118-99.856117v-599.116717a99.962071 99.962071 0 0 1 99.856118-99.856118h147.949983a184.537904 184.537904 0 0 0 131.179353-54.320128l47.246237-47.301214c0.34185-0.342849 0.856624-0.456799 1.255448-0.799648a42.695237 42.695237 0 0 1 12.60746-8.501265h0.116949a42.968118 42.968118 0 0 1 32.520708 0h0.117948a41.951564 41.951564 0 0 1 12.612458 8.501265c0.392827 0.34185 0.907601 0.4558 1.25045 0.799648l47.306211 47.301214a184.196054 184.196054 0 0 0 131.117381 54.320128h147.95498a99.962071 99.962071 0 0 1 99.856118 99.856118V740.392382a99.962071 99.962071 0 0 1-99.859116 99.853119zM303.556799 127.010935H155.606816a14.271728 14.271728 0 0 0-14.264731 14.264731v599.116716a14.307712 14.307712 0 0 0 14.264731 14.264732h242.501432a71.386629 71.386629 0 0 0 71.321657-71.323657v-612.982623a269.089748 269.089748 0 0 1-165.873106 56.660101z m579.545317 14.264731a14.270729 14.270729 0 0 0-14.264732-14.264731H720.882404a269.136727 269.136727 0 0 1-165.868109-56.602126V683.333457a71.421614 71.421614 0 0 0 71.321657 71.323657H868.837384a14.307712 14.307712 0 0 0 14.264732-14.264732z"  horiz-adv-x="1024" />

    
    <glyph glyph-name="ic_battery_full" unicode="&#59073;" d="M208.785446 37.927083c-86.263091 0-156.358288 70.968813-156.358288 158.311429V570.363102c0 87.237663 70.095196 158.260452 156.358288 158.260452h483.196658c86.212114 0 156.358288-71.022789 156.358288-158.260452v-71.955379c62.624479 0.001 113.68704-51.699281 113.68704-115.106416 0-63.51109-51.06256-115.159393-113.68704-115.159393v-71.903402c0-87.342617-70.146174-158.31143-156.358288-158.311429z m-71.068768 532.436019V196.238512c0-39.733539 31.824015-71.955379 71.068768-71.955379h483.196658c39.191777 0 71.068769 32.22184 71.068769 71.955379V570.363102c0 39.629585-31.874992 71.955379-71.068769 71.955379H208.785446c-39.242755 0-71.067769-32.325794-71.067769-71.955379z m710.623714-215.865137a28.778353 28.778353 0 0 1 0 57.553708zM592.518814 253.79222V512.809394c0 23.829528 19.083614 43.152037 42.61927 43.152037s42.671248-19.322509 42.671248-43.152037v-259.017174c0-23.829528-19.135591-43.204014-42.671248-43.204014s-42.619271 19.374486-42.61927 43.204014z m-184.754809 0V512.809394c0 23.829528 19.084613 43.152037 42.61927 43.152037s42.671248-19.322509 42.671248-43.152037v-259.017174c0-23.829528-19.134591-43.204014-42.671248-43.204014s-42.619271 19.374486-42.61927 43.204014z m-184.754809 0V512.809394c0 23.829528 19.084613 43.152037 42.62027 43.152037s42.62027-19.322509 42.62027-43.152037v-259.017174c0-23.829528-19.084613-43.204014-42.62027-43.204014s-42.62027 19.374486-42.62027 43.204014z"  horiz-adv-x="1024" />

    
    <glyph glyph-name="ic_block_th" unicode="&#59074;" d="M157.399245-70.003965a99.435203 99.435203 0 0 0-99.33321 99.287213V227.90867a99.4682 99.4682 0 0 0 99.33321 99.287213h709.322511a99.425203 99.425203 0 0 0 99.282213-99.287213v-198.625422a99.393206 99.393206 0 0 0-99.282213-99.287213z m-14.199029 297.912635v-198.625422a14.234027 14.234027 0 0 1 14.199029-14.199029h709.322511a14.233027 14.233027 0 0 1 14.19903 14.199029V227.90867a14.266025 14.266025 0 0 1-14.19903 14.19903H157.399245a14.266025 14.266025 0 0 1-14.198029-14.19903z m14.199029 212.824452a99.436203 99.436203 0 0 0-99.33321 99.288212V738.646757a99.4682 99.4682 0 0 0 99.33321 99.287212h709.322511a99.424203 99.424203 0 0 0 99.282213-99.287212v-198.625423a99.393206 99.393206 0 0 0-99.282213-99.287212z m-14.198029 297.913635v-198.625423a14.233027 14.233027 0 0 1 14.199029-14.199029h709.321511a14.233027 14.233027 0 0 1 14.19903 14.199029V738.646757a14.266025 14.266025 0 0 1-14.19903 14.199029H157.399245a14.267025 14.267025 0 0 1-14.198029-14.199029z"  horiz-adv-x="1024" />

    
    <glyph glyph-name="ic_battery_middle" unicode="&#59075;" d="M208.785446 37.927083c-86.263091 0-156.358288 70.968813-156.358288 158.311429V570.363102c0 87.237663 70.095196 158.260452 156.358288 158.260452h483.196658c86.262092 0 156.358288-71.022789 156.358288-158.260452v-71.955379c62.672458 0 113.68704-51.70028 113.68704-115.107416 0-63.51109-51.010583-115.159393-113.68704-115.159392v-71.903402c0-87.341617-70.095196-158.31043-156.358288-158.31043z m-71.068768 532.436019V196.238512c0-39.733539 31.874992-71.955379 71.068768-71.955379h483.196658c39.191777 0 71.068769 32.22184 71.068769 71.955379V570.363102c0 39.629585-31.874992 71.955379-71.068769 71.955379H208.785446c-39.191777 0-71.067769-32.325794-71.067769-71.955379z m710.623714-215.865137a28.778353 28.778353 0 0 1 0 57.553708z m-426.352638-100.705745V512.809394c0 23.829528 19.084613 43.152037 42.62027 43.152037s42.619271-19.321509 42.619271-43.152037v-259.017174c0-23.829528-19.084613-43.204014-42.619271-43.204014s-42.62027 19.374486-42.62027 43.204014z m-198.978558 0V512.809394c0 23.829528 19.084613 43.152037 42.62027 43.152037s42.62027-19.322509 42.62027-43.152037v-259.017174c0-23.829528-19.084613-43.204014-42.62027-43.204014s-42.62027 19.374486-42.62027 43.204014z"  horiz-adv-x="1024" />

    
    <glyph glyph-name="ic_cancel" unicode="&#59076;" d="M572.572514 391.09306l268.820494 268.76451a42.728316 42.728316 0 1 1-60.425477 60.427477l-268.820495-268.826493-268.766509 268.826493a42.729316 42.729316 0 0 1-60.427477-60.427477l268.826493-268.76451-268.826493-268.826492a42.729316 42.729316 0 0 1 60.427477-60.427477l268.766509 268.821494L780.967531 61.839091a42.728316 42.728316 0 0 1 60.425477 60.427477z"  horiz-adv-x="1024" />

    
    <glyph glyph-name="ic_block_tl" unicode="&#59077;" d="M668.810199-64.615332a99.8417 99.8417 0 0 0-99.696739 99.697739V747.060726a99.797712 99.797712 0 0 0 99.696739 99.645753h199.345491a99.753724 99.753724 0 0 0 99.645753-99.645753v-711.978319a99.797712 99.797712 0 0 0-99.645753-99.697739z m-14.250104 811.678057v-711.980318a14.285094 14.285094 0 0 1 14.250104-14.250103h199.345491a14.285094 14.285094 0 0 1 14.249104 14.250103V747.060726a14.318085 14.318085 0 0 1-14.251103 14.249103h-199.345492a14.318085 14.318085 0 0 1-14.248104-14.249103z m-498.332737-811.678057a99.8417 99.8417 0 0 0-99.696739 99.697739V747.060726a99.797712 99.797712 0 0 0 99.696739 99.645753h199.345492a99.753724 99.753724 0 0 0 99.648752-99.645753v-711.978319a99.797712 99.797712 0 0 0-99.645753-99.697739z m-14.249104 811.676058v-711.978319a14.285094 14.285094 0 0 1 14.249104-14.250103h199.345492a14.285094 14.285094 0 0 1 14.250103 14.250103V747.060726a14.318085 14.318085 0 0 1-14.252103 14.249103H156.227358a14.318085 14.318085 0 0 1-14.249104-14.249103z"  horiz-adv-x="1024" />

    
    <glyph glyph-name="ic_bowout" unicode="&#59078;" d="M386.288147-73.744306a42.676747 42.676747 0 0 0 0 85.353495h426.947426a71.201226 71.201226 0 0 1 71.158237 71.162237V680.499821a71.267209 71.267209 0 0 1-71.158237 71.162237h-426.947426a42.676747 42.676747 0 0 0 0 85.353495h426.947426c86.325238 0 156.506734-70.23948 156.506733-156.515732v-597.729395c0-86.326238-70.181495-156.514731-156.506733-156.514732z m-31.300747 241.305375a42.809712 42.809712 0 0 0 2.19942 60.3011l119.621459 111.070714H101.708182a42.70274 42.70274 0 1 0 0 85.404481h375.101097l-119.621459 110.97074a42.739731 42.739731 0 0 0 58.200654 62.605493l199.231468-185.051207a42.707739 42.707739 0 0 0 0-62.554506l-199.231468-185.001221a42.831706 42.831706 0 0 0-60.400074 2.254406z"  horiz-adv-x="1024" />

    
    <glyph glyph-name="ic_arrow_topright" unicode="&#59079;" d="M811.768464 726.127651H326.770597a42.794194 42.794194 0 1 1 0-85.588388h381.665276L182.410037 114.457451a42.789196 42.789196 0 0 1 60.48542-60.539395l526.078813 526.081811v-381.666275a42.794194 42.794194 0 1 1 85.587388 0V683.333457a42.809187 42.809187 0 0 1-42.793194 42.794194z"  horiz-adv-x="1024" />

    
    <glyph glyph-name="ic_calendar_reduce" unicode="&#59080;" d="M754.256834-21.815035v85.447635h-85.447635a42.698325 42.698325 0 1 0 0 85.39665h85.447635v85.444636a42.698325 42.698325 0 0 0 85.39665 0v-85.447635h85.447635a42.698325 42.698325 0 0 0 0-85.39665h-85.448635v-85.447635a42.698325 42.698325 0 1 0-85.396649 0z m-541.082047-42.698325c-86.421369 0-156.645167 70.223798-156.645168 156.594182V576.216441c0 86.319397 70.223798 156.594181 156.645168 156.594181h28.504205V804.008154a42.698325 42.698325 0 0 0 85.39665 0v-71.197532h370.178779V804.008154a42.724318 42.724318 0 0 0 85.447635 0v-71.197532h28.499208c86.319397 0 156.594181-70.275784 156.594181-156.594181v-142.397063a42.698325 42.698325 0 1 0-85.396649 0V576.216441a71.293506 71.293506 0 0 1-71.194533 71.144546H782.705056v-42.698324a42.724318 42.724318 0 0 0-85.447636 0v42.698324H327.070643v-42.698324a42.698325 42.698325 0 1 0-85.396649 0v42.698324h-28.499207a71.227524 71.227524 0 0 1-71.197532-71.146546V92.080822a71.20553 71.20553 0 0 1 71.197532-71.197532h256.29092a42.698325 42.698325 0 1 0 0-85.39565z m56.947428 484.083634a42.724318 42.724318 0 0 0 0 85.447635h484.134619a42.724318 42.724318 0 0 0 0-85.447635z"  horiz-adv-x="1024" />

    
    <glyph glyph-name="ic_battery_low" unicode="&#59081;" d="M208.785446 37.927083c-86.212114 0-156.358288 70.968813-156.358288 158.311429V570.363102c0 87.237663 70.146174 158.260452 156.358288 158.260452h483.196658c86.262092 0 156.358288-71.022789 156.358288-158.260452v-71.955379c62.672458 0 113.68704-51.70028 113.68704-115.107416 0-63.51109-51.010583-115.159393-113.68704-115.159392v-71.903402c0-87.341617-70.095196-158.31043-156.358288-158.31043z m-71.068768 532.436019V196.238512c0-39.733539 31.874992-71.955379 71.068768-71.955379h483.196658c39.242755 0 71.068769 32.22184 71.068769 71.955379V570.363102c0 39.629585-31.824015 71.955379-71.068769 71.955379H208.785446c-39.191777 0-71.067769-32.325794-71.067769-71.955379z m710.623714-215.865137a28.778353 28.778353 0 0 1 0 57.553708z m-625.331196-100.705745V512.809394c0 23.829528 19.084613 43.152037 42.62027 43.152037 23.589633 0 42.62027-19.322509 42.62027-43.152037v-259.017174c0-23.829528-19.032636-43.204014-42.62027-43.204014-23.535657 0-42.62027 19.374486-42.62027 43.204014z"  horiz-adv-x="1024" />

    
    <glyph glyph-name="ic_bag" unicode="&#59082;" d="M923.478876 554.207365H739.048484v70.937151c0 117.296982-95.453475 212.806453-212.807453 212.806452h-28.37306c-117.300981 0-212.807453-95.508471-212.807453-212.806452v-70.937151H100.629126a42.561091 42.561091 0 0 1 0-85.122181h22.245479l87.394026-415.228616c15.152964-71.785093 79.394573-123.880532 152.71456-123.880531h298.14462c73.376984 0 137.617593 52.096439 152.767556 123.825535l0.056997 0.054996 87.333029 415.226616h22.198483a42.561091 42.561091 0 0 1 0 85.122181z m-553.296177 70.937151c0 70.36719 57.313082 127.684272 127.684272 127.684271h28.37306c70.424186 0 127.684272-57.317082 127.684272-127.684271v-70.937151H370.183699z m360.465359-553.69615a71.431117 71.431117 0 0 0-69.520247-56.350148H362.976192a71.143137 71.143137 0 0 0-69.34726 56.296152l-83.760274 397.688814h604.479678z"  horiz-adv-x="1024" />

    
    <glyph glyph-name="ic_body" unicode="&#59083;" d="M203.516006-77.642246h-0.099999A145.767288 145.767288 0 0 0 57.32172 62.872068l-0.152999 5.731972v78.085619c0 122.038404 95.535534 220.545923 217.628937 224.230905l6.651968 0.099999h467.903715c122.093404-0.051 220.598923-95.638533 224.229905-217.628937l0.051-6.651968v-78.086618a145.858288 145.858288 0 0 0-140.463314-146.244286l-5.730972-0.051z m575.005193 176.385139l0.255998-3.888981v-87.757572h48.560763a61.834698 61.834698 0 0 1 61.5077 57.51572l0.099999 4.144979v77.93262a139.076321 139.076321 0 0 1-133.964345 139.389319l-5.679973 0.1h-467.797716A139.17232 139.17232 0 0 1 142.060306 152.318631l-0.099999-5.679972v-77.983619a61.755698 61.755698 0 0 1 57.566719-61.4557l4.14498-0.1h48.458763v87.549573a42.392793 42.392793 0 0 0 84.585587 4.09398l0.199999-3.888981v-87.757572h357.071256V94.648913a42.365793 42.365793 0 0 0 84.533588 4.09398zM291.167578 614.544374C291.223578 738.22577 391.825087 838.774279 515.401483 838.825279c123.730396 0 224.383904-100.550509 224.383905-224.280905a224.236905 224.236905 0 0 0-224.280905-224.332904c-123.731396 0-224.336905 100.601509-224.336905 224.332904z m84.687587 0c0-76.960624 62.683694-139.593318 139.542318-139.593318 76.960624 0 139.593318 62.632694 139.593319 139.593318 0 76.858625-62.632694 139.542319-139.593319 139.542319-76.854625 0-139.538319-62.684694-139.538318-139.542319z"  horiz-adv-x="1024" />

    
    <glyph glyph-name="ic_chart" unicode="&#59084;" d="M213.175786-64.51336c-86.421369 0-156.645167 70.223798-156.645167 156.594182V690.112297c0 86.319397 70.223798 156.594181 156.645167 156.594182h598.029477c86.370383 0 156.594181-70.274784 156.594181-156.594182V92.080822c0-86.370383-70.223798-156.594181-156.594181-156.594182z m-71.197532 754.625657V92.080822a71.20553 71.20553 0 0 1 71.197532-71.197532h598.029477a71.271512 71.271512 0 0 1 71.199531 71.197532V690.112297a71.337494 71.337494 0 0 1-71.199531 71.197532H213.175786a71.271512 71.271512 0 0 1-71.197532-71.197532zM654.560095 205.981677V519.217027a42.724318 42.724318 0 1 0 85.447636 0v-313.23535a42.724318 42.724318 0 0 0-85.447636 0z m-185.093388 0v142.391065a42.724318 42.724318 0 0 0 85.447635 0v-142.391065a42.724318 42.724318 0 0 0-85.447635 0z m-185.093389 0V519.217027a42.724318 42.724318 0 1 0 85.447636 0v-313.23535a42.724318 42.724318 0 0 0-85.447636 0z"  horiz-adv-x="1024" />

    
    <glyph glyph-name="ic_briefcase" unicode="&#59085;" d="M562.392254 838.829279a142.513304 142.513304 0 0 0 142.425305-136.799332l0.113999-5.683972v-12.964937h64.759684a194.330051 194.330051 0 0 0 194.221051-188.023082l0.114-6.311969v-362.743229c0-104.843488-83.237594-190.811068-188.024082-194.221051l-6.310969-0.114H251.501772A194.329051 194.329051 0 0 0 57.28172 119.990789l-0.114999 6.311969V489.044987c0 104.843488 83.237594 190.809068 188.024082 194.221052l6.310969 0.113999h64.759684v12.963937a142.499304 142.499304 0 0 0 136.799332 142.367305l5.741972 0.113999z m323.909418-513.417493H652.845812a142.486304 142.486304 0 0 0-284.508611 0H134.890341v-199.111028a116.539431 116.539431 0 0 1 111.099458-116.442431l5.513973-0.170999H769.690242a116.578431 116.578431 0 0 1 116.441431 111.099457l0.170999 5.515973z m-311.455479-0.057h-128.499372a64.767684 64.767684 0 0 1 128.499372 0z m194.846049 280.298632H251.501772a116.66943 116.66943 0 0 1-116.499431-111.099458l-0.114-5.515973v-85.90658H886.299672v85.91358a116.579431 116.579431 0 0 1-111.099457 116.442432z m-207.298988 155.444241H458.79976a64.754684 64.754684 0 0 1-64.645685-60.551705l-0.170999-4.205979v-12.964937h233.224861v12.968937a64.835683 64.835683 0 0 1-60.551704 64.645684z"  horiz-adv-x="1024" />

    
    <glyph glyph-name="ic_calendar_add" unicode="&#59086;" d="M213.174787-64.51336c-86.318397 0-156.645167 70.223798-156.645168 156.594182V576.216441c0 86.319397 70.32677 156.594181 156.645168 156.594181h28.504205V804.008154a42.698325 42.698325 0 0 0 85.39665 0v-71.197532h370.178779V804.008154a42.724318 42.724318 0 0 0 85.447635 0v-71.197532h28.499208c86.370383 0 156.594181-70.275784 156.594181-156.594181v-142.397063a42.698325 42.698325 0 1 0-85.396649 0V576.216441a71.260515 71.260515 0 0 1-71.194533 71.144546H782.705056v-42.698324a42.724318 42.724318 0 0 0-85.447636 0v42.698324H327.070643v-42.698324a42.698325 42.698325 0 1 0-85.396649 0v42.698324h-28.499207a71.260515 71.260515 0 0 1-71.197532-71.146546V92.080822a71.238521 71.238521 0 0 1 71.197532-71.197532h256.29092a42.698325 42.698325 0 1 0 0-85.39565z m455.634412 128.14596a42.698325 42.698325 0 1 0 0 85.39665h256.29192a42.698325 42.698325 0 0 0 0-85.39665z m-398.690983 355.937674a42.724318 42.724318 0 0 0 0 85.447635h484.138618a42.724318 42.724318 0 0 0 0-85.447635z"  horiz-adv-x="1024" />

    
    <glyph glyph-name="ic_carton" unicode="&#59087;" d="M336.141479-72.670315a156.30831 156.30831 0 0 0-156.212352 141.988603L135.660581 534.729761a100.05603 100.05603 0 0 0-60.185551 91.562763V740.39838a99.982063 99.982063 0 0 0 99.881107 99.830129h713.238565a99.938082 99.938082 0 0 0 99.830129-99.830129v-114.105856a100.014049 100.014049 0 0 0-60.133574-91.559764l-44.318524-465.414472A156.295316 156.295316 0 0 0 727.80936-72.670315z m-70.968812 150.156014a70.978808 70.978808 0 0 1 70.968812-64.601611h391.667881a70.968813 70.968813 0 0 1 70.917835 64.601611l42.781199 448.926717H222.446443zM161.08041 740.39838v-114.105856a14.278725 14.278725 0 0 1 14.275727-14.275727h713.238565a14.278725 14.278725 0 0 1 14.275727 14.275727V740.39838a14.344696 14.344696 0 0 1-14.275727 14.275726H175.356137a14.344696 14.344696 0 0 1-14.275727-14.275726zM403.567849 269.646253a42.80319 42.80319 0 0 0 0 85.605381h256.764164a42.80319 42.80319 0 1 0 0-85.605381z"  horiz-adv-x="1024" />

    
    <glyph glyph-name="ic_briefcase-1" unicode="&#59088;" d="M811.166273 675.862194h-71.193533v14.238107c0 86.341391-70.223798 156.623173-156.622173 156.623173H440.9675c-86.399375 0-156.622174-70.280783-156.622174-156.623173v-14.238107h-71.192533c-86.398375 0-156.622174-70.280783-156.622174-156.622174v-427.1532c0-86.398375 70.223798-156.623173 156.622174-156.623173h598.01348c86.398375 0 156.622174 70.223798 156.622174 156.623173v427.1532c0 86.341391-70.223798 156.622174-156.622174 156.622174z m-441.392307 14.238107a71.291506 71.291506 0 0 0 71.192534 71.192533h142.385066a71.254516 71.254516 0 0 0 71.192534-71.192533v-14.238107H369.773966z m-156.622173-99.672746h598.01448a71.254516 71.254516 0 0 0 71.191534-71.192533V362.616847H739.97274v42.71532a42.71532 42.71532 0 1 1-85.43064 0v-42.71532H369.773966v42.71532a42.71532 42.71532 0 1 1-85.43064 0v-42.71532H141.961259V519.24002a71.291506 71.291506 0 0 0 71.191534 71.191534z m598.01448-569.533268H213.152793a71.254516 71.254516 0 0 0-71.192534 71.192533v185.099387h142.385067v-14.238107a42.71532 42.71532 0 1 1 85.43064 0v14.238107h284.767134v-14.238107a42.71532 42.71532 0 1 1 85.43064 0v14.238107H882.357807v-185.099387a71.217526 71.217526 0 0 0-71.191534-71.192533z"  horiz-adv-x="1024" />

    
    <glyph glyph-name="ic_chat" unicode="&#59089;" d="M475.182377-51.49562l-136.440041 156.003444H208.785446c-86.183127 0-156.3313 70.099195-156.331299 156.344294V687.241739c-0.003998 86.193122 70.148173 156.348292 156.331299 156.348293h596.917683c86.241101 0 156.3313-70.15617 156.3313-156.345294v-426.39362c0-86.245099-70.095196-156.344294-156.3313-156.344294H675.803214l-136.440041-156.003444a42.655255 42.655255 0 0 0-64.182795 0zM137.723675 687.241739v-426.390621a71.125744 71.125744 0 0 1 71.061771-71.068768h149.229421a42.928135 42.928135 0 0 0 32.120884-14.554604l117.109536-133.94114 117.166511 133.94114a42.805189 42.805189 0 0 0 32.06291 14.554604h149.228421a71.08876 71.08876 0 0 1 71.061772 71.068768V687.241739a71.125744 71.125744 0 0 1-71.061772 71.068769h-596.917683a71.162727 71.162727 0 0 1-71.061771-71.068769z m483.219647-241.618819a56.850017 56.850017 0 1 0 56.849018-56.850017 56.907992 56.907992 0 0 0-56.849018 56.850017z m-170.548052 0a56.849018 56.849018 0 1 0 56.850017-56.850017 56.907992 56.907992 0 0 0-56.850017 56.850017z m-170.548052 0a56.850017 56.850017 0 1 0 56.850017-56.850017 56.907992 56.907992 0 0 0-56.850017 56.850017z"  horiz-adv-x="1024" />

    
    <glyph glyph-name="ic_calendar" unicode="&#59090;" d="M213.174787-64.51336c-86.421369 0-156.645167 70.223798-156.645168 156.594182V576.216441c0 86.319397 70.223798 156.594181 156.645168 156.594181h28.504205V804.008154a42.698325 42.698325 0 0 0 85.39665 0v-71.197532h370.178779V804.008154a42.724318 42.724318 0 0 0 85.447635 0v-71.197532h28.499208c86.370383 0 156.594181-70.275784 156.594181-156.594181V92.080822c0-86.370383-70.223798-156.594181-156.594181-156.594182z m-71.197532 640.724802V92.080822a71.238521 71.238521 0 0 1 71.197532-71.197532h598.029476a71.271512 71.271512 0 0 1 71.199531 71.197532V576.216441a71.293506 71.293506 0 0 1-71.199531 71.144546H782.705056v-42.698324a42.724318 42.724318 0 0 0-85.447636 0v42.698324H327.070643v-42.698324a42.698325 42.698325 0 1 0-85.396649 0v42.698324h-28.499207a71.260515 71.260515 0 0 1-71.197532-71.144546zM270.122215 419.571273a42.724318 42.724318 0 0 0 0 85.447636h484.134619a42.724318 42.724318 0 0 0 0-85.447636z"  horiz-adv-x="1024" />

    
    <glyph glyph-name="ic_church" unicode="&#59091;" d="M868.15669-64.51336H99.282929a42.698325 42.698325 0 1 0 0 85.39565h14.250103V690.112297c0 86.319397 70.223798 156.594181 156.593182 156.594182h484.134619c86.370383 0 156.594181-70.274784 156.594182-156.594182v-669.229007h14.250103a42.698325 42.698325 0 0 0 0-85.39565zM526.418134 334.122638c86.421369 0 156.645167-70.274784 156.645167-156.594181v-156.645167h142.344078V690.112297a71.293506 71.293506 0 0 1-71.146546 71.197532H270.126214a71.337494 71.337494 0 0 1-71.197532-71.197532v-669.229007h142.396064V177.528457c0 86.319397 70.223798 156.594181 156.645167 156.594181z m-99.646753-156.594181v-156.645167H597.615666V177.528457a71.304503 71.304503 0 0 1-71.197532 71.197532h-28.448221a71.304503 71.304503 0 0 1-71.198532-71.197532z m142.345078 327.438466a56.947428 56.947428 0 1 0 56.947428-56.951427 56.921436 56.921436 0 0 0-56.947428 56.951427z m-227.791713 0a56.947428 56.947428 0 1 0 56.947428-56.951427 56.921436 56.921436 0 0 0-56.947428 56.951427z"  horiz-adv-x="1024" />

    
    <glyph glyph-name="ic_coin" unicode="&#59092;" d="M56.767358 398.462034c0 251.002525 204.202123 455.153658 455.152658 455.153658S967.072675 649.464559 967.072675 398.462034c0-250.948536-204.202123-455.106668-455.152659-455.106667S56.767358 147.510499 56.767358 398.462034z m85.357495 0c0-203.895186 165.900977-369.796163 369.796163-369.796163 203.946175 0 369.846153 165.900977 369.846153 369.796163 0 203.946175-165.900977 369.847152-369.846153 369.847153-203.895186 0-369.796163-165.900977-369.796163-369.847153z m327.14291-241.786415v14.235081h-85.357495a42.678248 42.678248 0 0 0 0 85.357495h163.59645a49.770793 49.770793 0 0 1 0 99.540586h-71.125413c-74.501721 0-135.127288 60.574577-135.127289 135.127289 0 72.044225 56.888333 130.621212 128.009748 134.359446v15.003923a42.678248 42.678248 0 0 0 85.357495 0v-14.237081h85.305506a42.678248 42.678248 0 1 0 0-85.357495H476.381305a49.770793 49.770793 0 1 1 0-99.540586h71.125413c74.501721 0.002 135.132287-60.674557 135.132288-135.125289 0-72.095215-56.836344-130.622212-128.009748-134.462425v-14.896945a42.678248 42.678248 0 0 0-85.357495 0z"  horiz-adv-x="1024" />

    
    <glyph glyph-name="ic_curtain" unicode="&#59093;" d="M810.552167 838.452232H213.848945c-86.209692 0-156.280058-70.126346-156.280057-156.280058v-426.218158c0-86.208692 70.070366-156.279058 156.280057-156.279058h240.10159l-148.835675-91.608794a42.640009 42.640009 0 1 1 44.784255-72.574485l162.302941 99.904877 162.30294-99.904877a42.640009 42.640009 0 1 1 44.784255 72.574485l-148.839673 91.608794h240.102589c86.208692 0 156.279058 70.070366 156.279058 156.279058V682.172174c0 86.152712-70.070366 156.280058-156.279058 156.280058z m71.036026-582.495217a71.098005 71.098005 0 0 0-71.036026-71.043024H213.848945a71.098005 71.098005 0 0 0-71.037026 71.036027V682.172174a71.135991 71.135991 0 0 0 71.037026 71.037026h596.703222a71.134992 71.134992 0 0 0 71.036026-71.037026z"  horiz-adv-x="1024" />

    
    <glyph glyph-name="ic_circle_stop" unicode="&#59094;" d="M57.164721 380.233518c0 252.834765 205.705996 458.591761 458.591761 458.591761s458.590761-205.756995 458.59076-458.591761-205.705996-458.540761-458.59076-458.540761S57.164721 127.398753 57.164721 380.233518z m85.454583 0c0-205.756995 167.328183-373.137178 373.136178-373.137178 205.756995 0 373.187178 167.379183 373.187177 373.137178S721.513477 753.425696 515.756482 753.425696c-205.808995 0-373.137178-167.435182-373.137178-373.192178z m419.597951-141.078311l-0.199999 4.24698V495.008958a42.629792 42.629792 0 0 0 42.420793 42.98379h0.357998a42.417793 42.417793 0 0 0 42.365793-38.582812l0.199999-4.144979 0.051-251.708771a42.715791 42.715791 0 0 0-85.199584-4.399979z m-181.860112 0l-0.199999 4.19998-0.1 251.657771a42.630792 42.630792 0 0 0 42.420793 42.98379h0.357998a42.466793 42.466793 0 0 0 42.420793-38.582812l0.199999-4.144979v-251.708771a42.661792 42.661792 0 0 0-85.099584-4.399979z"  horiz-adv-x="1024" />

    
    <glyph glyph-name="ic_block_three" unicode="&#59095;" d="M670.921097-73.744306a99.7447 99.7447 0 0 0-99.641727 99.59574v199.247464a99.773692 99.773692 0 0 0 99.641727 99.59174h199.230469a99.733703 99.733703 0 0 0 99.59074-99.595739v-199.247464a99.700712 99.700712 0 0 0-99.59074-99.591741z m-14.243244 298.839205v-199.247464a14.277235 14.277235 0 0 1 14.243244-14.238246h199.230469a14.277235 14.277235 0 0 1 14.242244 14.242245v199.247464a14.310227 14.310227 0 0 1-14.242244 14.242244H670.921097a14.310227 14.310227 0 0 1-14.243244-14.246243zM158.624175-73.744306a99.7447 99.7447 0 0 0-99.641727 99.59574V737.419813a99.773692 99.773692 0 0 0 99.641727 99.59574h199.231469a99.733703 99.733703 0 0 0 99.589741-99.59574v-711.568379a99.700712 99.700712 0 0 0-99.589741-99.59574z m-14.242244 811.164119v-711.568379a14.277235 14.277235 0 0 1 14.242244-14.242245h199.231469a14.277235 14.277235 0 0 1 14.244244 14.242245V737.419813a14.311227 14.311227 0 0 1-14.242245 14.242245H158.624175a14.311227 14.311227 0 0 1-14.242244-14.242245zM670.921097 438.580609a99.7447 99.7447 0 0 0-99.641727 99.595739V737.419813a99.773692 99.773692 0 0 0 99.641727 99.59574h199.230469a99.733703 99.733703 0 0 0 99.59074-99.59574v-199.247464a99.700712 99.700712 0 0 0-99.59074-99.595739z m-14.243244 298.839204v-199.247464a14.277235 14.277235 0 0 1 14.243244-14.238246h199.230469a14.277235 14.277235 0 0 1 14.242244 14.243245V737.419813a14.311227 14.311227 0 0 1-14.242244 14.242245H670.921097a14.311227 14.311227 0 0 1-14.243244-14.242245z"  horiz-adv-x="1024" />

    
    <glyph glyph-name="ic_box" unicode="&#59096;" d="M966.648759 157.411958c0.284922 1.993455 1.139688 3.758972 1.139688 5.866396V618.907767a42.402406 42.402406 0 0 1-2.96219 14.864936c-0.51286 1.366626-1.199672 2.562299-1.822502 3.872941a42.266443 42.266443 0 0 1-6.208302 9.226477c-0.910751 1.02572-1.599563 2.050439-2.563299 2.96219a43.028234 43.028234 0 0 1-11.675808 8.030804L529.644252 842.963502a42.414402 42.414402 0 0 1-34.912454 0L81.817705 657.864115a43.028234 43.028234 0 0 1-11.675808-8.030804 31.857289 31.857289 0 0 1-2.562299-2.96219 40.332971 40.332971 0 0 1-6.208303-9.226477 34.257633 34.257633 0 0 1-1.822501-3.872941 42.456391 42.456391 0 0 1-3.018175-14.864935v-455.628414c0-2.107424 0.910751-3.872941 1.199672-5.866396 0.51286-3.417066 0.739798-6.834131 1.993455-9.967275 1.081704-2.677268 2.904206-4.726708 4.441785-7.119053 1.480595-2.221393 2.563299-4.670723 4.49877-6.607194 2.392346-2.506315 5.410521-4.157863 8.315726-6.036349 1.708533-1.02472 2.96119-2.563299 4.840677-3.417066l412.914094-185.099387a43.004241 43.004241 0 0 1 34.912453 0l412.914094 185.099387c1.879486 0.854766 3.132144 2.392346 4.783692 3.417066 2.96119 1.879486 5.980365 3.531034 8.371711 6.036349 1.879486 1.93647 3.019174 4.385801 4.49877 6.607194 1.53758 2.392346 3.360081 4.441785 4.3858 7.119053 1.253657 3.133143 1.53558 6.550209 2.047441 9.967275zM141.961259 552.898817l327.483454-146.769868v-362.001015l-327.483454 146.829851z m412.913094-146.769868l327.483454 146.769868v-361.941032L554.874353 44.130933z m-42.71532 351.004022l308.51564-138.227203-308.51564-138.281189-308.51764 138.283188z"  horiz-adv-x="1024" />

    
    <glyph glyph-name="ic_close" unicode="&#59097;" d="M56.532618 391.071067c0 251.268294 204.418104 455.635412 455.634413 455.635412s455.634412-204.367118 455.634412-455.635412c0-251.217308-204.418104-455.584426-455.634412-455.584427S56.532618 139.853759 56.532618 391.071067z m85.447636 0c0-204.111188 166.076588-370.187777 370.186777-370.187777 204.161175 0 370.237763 166.076588 370.237763 370.187777 0 204.162174-166.076588 370.238763-370.237763 370.238762-204.110189 0-370.186777-166.076588-370.186777-370.238762zM610.121247 232.682376l-97.954216 98.006201-97.954216-98.006201a42.71532 42.71532 0 0 0-60.383489 60.433475l97.90323 97.955216-97.90323 97.903229a42.71532 42.71532 0 1 0 60.383489 60.433475l97.954216-97.954215 97.954216 97.954215a42.71532 42.71532 0 0 0 60.383488-60.433475l-97.903229-97.903229 97.903229-97.955216a42.71532 42.71532 0 0 0-60.383488-60.433475z"  horiz-adv-x="1024" />

    
    <glyph glyph-name="ic_cutting" unicode="&#59098;" d="M924.392427 199.353867H796.382679V583.38811a99.672559 99.672559 0 0 1-99.563581 99.566581H312.788854V810.962439a42.670249 42.670249 0 0 1-85.340499 0v-128.007748H99.438607a42.670249 42.670249 0 1 1 0-85.340499h128.009748v-384.033243a99.673559 99.673559 0 0 1 99.563582-99.563581h384.030244v-128.009748a42.670249 42.670249 0 1 1 85.340498 0V114.017368h128.009748a42.670249 42.670249 0 0 1 0 85.340498z m-597.377491 0a14.229082 14.229082 0 0 0-14.223083 14.224083V597.612193h384.027245a14.265075 14.265075 0 0 0 14.223083-14.223083v-384.035243z"  horiz-adv-x="1024" />

    
    <glyph glyph-name="ic_cart" unicode="&#59099;" d="M739.045484-13.263843a56.740121 56.740121 0 1 0 56.740121-56.740122 56.789118 56.789118 0 0 0-56.740121 56.740122z m-397.228846 0a56.76512 56.76512 0 1 0 56.740122-56.740122 56.789118 56.789118 0 0 0-56.740122 56.740122z m144.121148 113.530239A156.128327 156.128327 0 0 0 335.126096 216.299464L229.716302 614.090271l-0.15299 0.714951-34.473643 138.044564h-94.425546a42.542092 42.542092 0 1 0 0 85.084183h127.673273a42.654084 42.654084 0 0 0 41.315176-32.276793l34.472643-137.942571h619.337662a42.616087 42.616087 0 0 0 41.418169-52.296425l-92.846653-394.880006a155.622362 155.622362 0 0 0-151.935614-120.271778z m-68.588311 137.890574a71.028145 71.028145 0 0 1 68.588311-52.756394h234.160993a70.709166 70.709166 0 0 1 69.04828 54.645265l80.594491 342.532584h-543.552843z"  horiz-adv-x="1024" />

    
    <glyph glyph-name="ic_cloud_download" unicode="&#59100;" d="M487.357815 1.291647l-2.819229 2.562299-92.008842 92.264772a39.110306 39.110306 0 0 0 52.385676 57.973148l2.819229-2.5623 25.373062-25.424048v193.547077a39.040325 39.040325 0 0 0 77.912696 3.792963l0.153958-3.792963v-193.547077l25.424048 25.424048a38.934354 38.934354 0 0 0 52.437662 2.5623l2.819229-2.5623a39.234272 39.234272 0 0 0 2.511313-52.591619l-2.511313-2.819229-92.059828-92.264772a38.934354 38.934354 0 0 0-52.437661-2.562299z m194.012949 122.558488a39.125302 39.125302 0 0 0 39.110306 39.217276c93.443449 0 169.203733 75.965228 169.203733 169.716593s-75.759285 169.711594-169.203733 169.711595a39.024329 39.024329 0 0 0-38.80239 34.804483l-0.306916 3.741977-0.050986 5.945374c-2.819229 91.649939-77.707752 164.437037-169.153747 164.437037-89.445542 0-163.055415-69.81391-168.844832-157.824845l-0.307915-5.99836-0.099973-6.561206a39.028328 39.028328 0 0 0-39.007334-38.54646c-93.443449 0-169.25372-75.965228-169.25372-169.716593s75.808271-169.709595 169.251721-169.709595a39.189284 39.189284 0 0 0 0-78.378568c-136.654633 0-247.372359 111.076627-247.37236 248.090163 0 122.766431 89.035654 224.76754 205.852713 244.55313l5.125598 0.871761 0.922748 5.689445c20.04252 116.357184 119.022455 202.419651 236.76226 205.751739l6.971094 0.050986c121.994642 0 223.738821-88.727739 243.78434-206.263599l0.871762-5.228571 5.125598-0.819775c114.559675-19.424689 202.367665-117.897762 205.75074-237.583036l0.099973-7.02208c0-137.013535-110.769711-248.091163-247.321373-248.091163a39.114305 39.114305 0 0 0-39.107307 39.162292z"  horiz-adv-x="1024" />

    
    <glyph glyph-name="ic_enlarge" unicode="&#59101;" d="M670.921097-73.744306a42.676747 42.676747 0 0 0 0 85.353495h142.314476a71.201226 71.201226 0 0 1 71.158237 71.162237V225.094899a42.673748 42.673748 0 1 0 85.348496 0v-142.324473c0-86.326238-70.181495-156.514731-156.506733-156.514732z m-455.379929 0c-86.377225 0-156.55872 70.188493-156.55872 156.514732V225.094899a42.699741 42.699741 0 0 0 85.399483 0v-142.324473a71.200227 71.200227 0 0 1 71.159237-71.161237h142.314476a42.676747 42.676747 0 0 0 0-85.353495z m668.853642 611.920654V680.499821a71.267209 71.267209 0 0 1-71.158238 71.162237H670.921097a42.676747 42.676747 0 0 0 0 85.353495h142.314476c86.325238 0 156.506734-70.23948 156.506733-156.515732v-142.323473a42.673748 42.673748 0 1 0-85.348496 0z m-825.412362 0V680.499821c0 86.276251 70.181495 156.515731 156.55872 156.515732h142.314476a42.676747 42.676747 0 0 0 0-85.353495H215.541168a71.266209 71.266209 0 0 1-71.158238-71.162237v-142.323473a42.699741 42.699741 0 0 0-85.399482 0z"  horiz-adv-x="1024" />

    
    <glyph glyph-name="ic_connect" unicode="&#59102;" d="M139.809136 13.042811c-110.688814 110.740801-110.688814 290.957283 0 401.646097l71.114249 71.11325a42.664751 42.664751 0 1 0 60.312098-60.357086l-71.11325-71.113249c-77.411589-77.462575-77.411589-203.460353 0-280.973915 74.953237-75.004223 205.865719-75.107196 281.025902 0l71.113249 71.113249a42.646755 42.646755 0 0 0 60.260111-60.362084l-71.118248-71.066262a283.790173 283.790173 0 0 0-401.594111 0z m213.343748 213.289761a42.642756 42.642756 0 0 0 0 60.362085L609.138387 542.688158a42.646755 42.646755 0 1 0 60.260111-60.362084L413.408996 226.336571a42.70474 42.70474 0 0 0-60.259112 0z m398.216001 56.885001a42.642756 42.642756 0 0 0 0 60.362085l71.062263 71.113249c77.461576 77.410589 77.461576 203.562326 0 280.972915-75.107196 75.210169-206.019678 75.158183-281.025901 0l-71.062263-71.113249a42.664751 42.664751 0 0 0-60.311098 60.362084l71.11325 71.114249a283.91414 283.91414 0 0 0 401.59411 0c110.689814-110.689814 110.689814-290.906296 0-401.694084l-71.113249-71.11325a42.70474 42.70474 0 0 0-60.259111 0z"  horiz-adv-x="1024" />

    
    <glyph glyph-name="ic_edit_round" unicode="&#59103;" d="M460.621751 838.826279a44.025785 44.025785 0 0 0 4.258979-87.842571l-4.262979-0.170999H255.255754a110.037463 110.037463 0 0 1-109.906464-104.217491l-0.168999-5.854972v-513.530492a110.056463 110.056463 0 0 1 104.161492-109.899464l5.913971-0.172999h513.523492a110.064463 110.064463 0 0 1 109.899464 104.218491l0.113999 5.856972V332.634751a44.023785 44.023785 0 0 0 87.843571 4.207979l0.226999-4.207979v-205.424997c0-106.718479-84.545587-194.221052-191.150067-197.974033l-6.936966-0.116H255.255754A198.077033 198.077033 0 0 0 57.28272 120.275788l-0.113999 6.936966v513.527492A198.064033 198.064033 0 0 0 248.259788 838.71428l6.999966 0.111999z m456.269772-55.035731a44.037785 44.037785 0 0 0 3.015985-58.959712l-3.015985-3.299984-352.16728-352.167281a44.011785 44.011785 0 0 0-65.270682 58.899713l3.011986 3.352983 352.17128 352.112281a43.955785 43.955785 0 0 0 62.255696 0z"  horiz-adv-x="1024" />

    
    <glyph glyph-name="ic_document" unicode="&#59104;" d="M270.515523-70.80173c-86.312299 0-156.539897 70.115621-156.539897 156.351936V682.658752c0 86.186325 70.227598 156.352935 156.539897 156.352935h355.698054a42.435297 42.435297 0 0 0 30.220803-12.487439l241.930385-241.668439a42.891204 42.891204 0 0 0 12.447447-30.144818v-469.160785c0-86.236315-70.176608-156.351936-156.539897-156.351936z m-71.150408 753.460482v-597.108546a71.159407 71.159407 0 0 1 71.149408-71.085422h483.757792a71.126414 71.126414 0 0 1 71.149409 71.085422V497.850652H612.023487a42.698244 42.698244 0 0 0-42.720239 42.632257V753.747173H270.515523a71.225393 71.225393 0 0 1-71.150408-71.088421z m455.327622-99.543586H779.320178L654.693737 707.638629zM384.334181 156.638627a42.658252 42.658252 0 1 0 0 85.315504h256.119476a42.658252 42.658252 0 1 0 0-85.315504z m0 170.580018a42.658252 42.658252 0 1 0 0 85.315503h256.119476a42.658252 42.658252 0 1 0 0-85.315503z"  horiz-adv-x="1024" />

    
    <glyph glyph-name="ic_cloud" unicode="&#59105;" d="M739.977739 49.3705H284.345326c-125.640645 0-227.813707 102.172062-227.813707 227.814707 0 106.503878 74.666583 197.745929 175.414035 221.663389 24.035428 133.670449 141.072426 233.966025 280.213379 233.966025s256.177951-100.295575 280.21238-233.966025C893.181847 474.929137 967.795445 383.689085 967.795445 277.186207c0-125.640645-102.183059-227.815707-227.817706-227.815707zM512.159033 647.384981c-105.651111 0-193.130191-82.583419-198.994587-188.061577a42.737314 42.737314 0 0 0-39.529192-40.209006c-73.808818-5.467505-131.674995-67.831452-131.674995-141.928191 0-78.539524 63.842543-142.384067 142.385067-142.384067H739.977739c78.536525 0 142.379068 63.844543 142.379068 142.384067 0 74.096739-57.865177 136.462686-131.617011 141.928191a42.795298 42.795298 0 0 0-39.589175 40.209006c-5.861397 105.478158-93.284493 188.061577-198.991588 188.061577z"  horiz-adv-x="1024" />

    
    <glyph glyph-name="ic_chart_down" unicode="&#59106;" d="M838.254366-70.024025a99.465067 99.465067 0 0 0-99.357113 99.357114V171.3238a99.498053 99.498053 0 0 0 99.357113 99.357113h28.413736a99.498053 99.498053 0 0 0 99.357113-99.357113v-141.990711a99.465067 99.465067 0 0 0-99.357113-99.357114z m-14.208867 241.347825v-141.990711a14.243852 14.243852 0 0 1 14.207868-14.208867h28.414735a14.276838 14.276838 0 0 1 14.209866 14.208867V171.3238a14.310823 14.310823 0 0 1-14.209866 14.208867h-28.413736a14.276838 14.276838 0 0 1-14.208867-14.208867zM497.564422-70.024025a99.476062 99.476062 0 0 0-99.406093 99.357114v312.345179a99.557027 99.557027 0 0 0 99.406093 99.412089h28.365756a99.586015 99.586015 0 0 0 99.406092-99.412089v-312.345179a99.509048 99.509048 0 0 0-99.407092-99.357114z m-14.207868 411.702293v-312.345179a14.210866 14.210866 0 0 1 14.207868-14.208867h28.365756a14.276838 14.276838 0 0 1 14.207867 14.208867v312.345179a14.309823 14.309823 0 0 1-14.208867 14.213864h-28.364756a14.243852 14.243852 0 0 1-14.207868-14.213864z m-326.533055-411.702293a99.509048 99.509048 0 0 0-99.406092 99.357114v709.893581a99.542034 99.542034 0 0 0 99.406092 99.357113h28.364757a99.509048 99.509048 0 0 0 99.406092-99.357113v-709.893581a99.476062 99.476062 0 0 0-99.405092-99.357114z m-14.207867 809.250695v-709.893581a14.243852 14.243852 0 0 1 14.208867-14.208867h28.364757a14.243852 14.243852 0 0 1 14.207867 14.208867v709.893581a14.276838 14.276838 0 0 1-14.207867 14.208867h-28.365757a14.276838 14.276838 0 0 1-14.207867-14.208867z m582.075753-298.136313a42.575623 42.575623 0 0 0 0 85.151246h95.930592L581.024397 765.852177a42.591616 42.591616 0 0 0 60.206013 60.259989l239.647558-239.660552v95.986568a42.573623 42.573623 0 1 0 85.147247 0v-198.772202a42.65059 42.65059 0 0 0-42.573623-42.575623z"  horiz-adv-x="1024" />

    
    <glyph glyph-name="ic_eaeth" unicode="&#59107;" d="M511.883031 839.22397c-250.925838 0-455.090006-204.166167-455.090006-455.091005s204.165167-455.092005 455.090006-455.092005 455.090006 204.166167 455.090005 455.092005S762.808869 839.22397 511.883031 839.22397z m367.087209-412.431253H738.234348c-5.91644 121.509961-36.578355 223.678022-78.503301 296.035943 117.981891-51.760352 203.878243-163.257953 219.239193-296.035943z m-367.087209-412.421256c-34.24597 0-128.222191 113.146167-139.940102 327.096753h279.880204c-11.71791-213.950587-105.637146-327.096754-139.940102-327.096753z m-139.944101 412.421256c11.71891 213.892603 105.695131 327.096754 139.940102 327.096754 34.301956 0 128.221192-113.204151 139.940102-327.096754z m-7.897917 295.984957c-41.86896-72.301936-72.586861-174.470997-78.503301-295.979959H144.798821c15.356951 132.772991 101.254302 244.270593 219.242192 295.979959z m-219.242192-381.310459h140.733892c5.91644-121.567946 36.63534-223.678022 78.503301-296.035944-117.982891 51.709366-203.880243 163.206967-219.237193 296.035944z m514.934226-296.035944c41.924946 72.357921 72.586861 174.470997 78.503301 296.035944h140.733892C863.609291 208.638238 777.712939 97.140637 659.731047 45.431271z"  horiz-adv-x="1024" />

    
    <glyph glyph-name="ic_computer" unicode="&#59108;" d="M810.551167 838.452232H213.847946C127.696233 838.452232 57.568888 768.325885 57.568888 682.172174v-369.388137c0-86.209692 70.127346-156.280058 156.279058-156.280058h127.355226c-3.466781-45.518997-18.355547-118.090484-75.354508-146.618454a42.604022 42.604022 0 0 1 19.037307-80.69763h454.630169a42.585029 42.585029 0 0 1 19.037308 80.69763c-57.395822 28.698911-72.057667 101.154438-75.473467 146.618454h127.471186c86.209692 0 156.280058 70.070366 156.280058 156.280058V682.172174c0 86.152712-70.069366 156.280058-156.280058 156.280058z m-422.521457-824.020306c27.845211 48.645898 36.426194 103.996439 38.757374 142.072053h170.826944c2.330181-38.075614 10.969144-93.426155 38.814354-142.072053z m493.558483 298.352111a71.062017 71.062017 0 0 0-71.037026-71.037026H213.847946a71.098005 71.098005 0 0 0-71.032028 71.037026V682.172174a71.134992 71.134992 0 0 0 71.036026 71.037026h596.699223a71.099004 71.099004 0 0 0 71.037026-71.037026z"  horiz-adv-x="1024" />

    
    <glyph glyph-name="ic_branch" unicode="&#59109;" d="M830.972509 205.493051l-0.394829-0.056976-0.683705 1.308436c-56.7605 101.186324-162.265959 164.762882-276.353715 166.921949v73.068461c89.203496 19.659514 153.519735 100.165764 153.519735 193.457496a198.539302 198.539302 0 0 1-57.045377 140.048549c-36.81211 37.440839-85.678018 58.064937-137.717555 58.064937h-0.112952c-107.328673 0-194.649981-88.861644-194.76793-198.114486 0-93.291731 64.261262-173.797982 153.519735-193.457496v-73.120438l-2.38597-0.056975c-111.928687-2.783798-213.119009-62.894852-270.496243-160.672647a55.083224 55.083224 0 0 1-3.471502-7.443787l-1.132511 0.056975a135.032714 135.032714 0 0 1-112.381492-60.619834c-41.989875-63.066778-25.788868-149.027674 36.078428-191.696256a133.083556 133.083556 0 0 1 75.959212-23.919675 137.740546 137.740546 0 0 1 25.454013 2.443945 134.628889 134.628889 0 0 1 87.212356 58.234863c40.966317 61.362513 26.588523 144.708538-31.533389 188.400679 43.747117 68.290523 116.586676 109.481743 196.696098 111.351936v-91.415541c-55.850892-18.180153-94.486216-71.360198-94.486216-130.902498 0-76.131139 60.90771-138.059408 135.734412-138.059408 74.881678 0 135.841365 61.928269 135.841365 138.059408 0 59.542299-38.694298 112.722344-94.486216 130.902498v91.415541h1.647289c79.258789-2.441946 151.70052-43.973019 194.989835-111.351936A138.619166 138.619166 0 0 1 695.183122 67.437641c0-76.133138 60.903711-138.118382 135.730413-138.118382h0.112951a133.766261 133.766261 0 0 1 95.908602 40.443543 138.697133 138.697133 0 0 1 39.826809 97.607868c0 76.137136-60.90771 138.122381-135.789388 138.122381zM565.306182 67.374668c0-29.8871-23.805724-54.144629-53.122071-54.144629-29.26037 0-53.12207 24.260528-53.12207 54.144629s23.860701 54.146628 53.12207 54.146628c29.316346 0 53.12207-24.260528 53.122071-54.146628z m59.02952 572.813751c0-63.066778-50.224321-114.311658-112.209566-114.311659-61.873293 0-112.151591 51.301856-112.096614 114.311659 0 62.951827 50.278298 114.198707 112.151591 114.198707 61.930268 0 112.15459-51.247879 112.154589-114.198707z m206.637807-626.95838c-29.257371 0-53.12207 24.260528-53.12207 54.144629s23.864699 54.146628 53.12207 54.146628c29.319345 0 53.12207-24.260528 53.12207-54.146628s-23.803725-54.144629-53.12307-54.144629zM246.57276 67.374668c0-29.8871-23.805724-54.144629-53.12207-54.144629s-53.125069 24.260528-53.125069 54.144629 23.805724 54.146628 53.125069 54.146628 53.12207-24.260528 53.12207-54.146628z"  horiz-adv-x="1024" />

    
    <glyph glyph-name="ic_copy" unicode="&#59110;" d="M440.799602-56.640634c-86.282305 0-156.42792 70.149614-156.42792 156.42892V469.584449c0 86.282305 70.149614 156.479909 156.42792 156.479909h369.847152c86.282305 0 156.42792-70.200603 156.42792-156.479909v-369.796163c0-86.282305-70.149614-156.42892-156.42792-156.42892z m-71.071425 526.225083v-369.796163a71.152408 71.152408 0 0 1 71.071425-71.122415h369.847152a71.163406 71.163406 0 0 1 71.122414 71.122415V469.584449a71.196399 71.196399 0 0 1-71.122414 71.122414H440.799602a71.185401 71.185401 0 0 1-71.071425-71.122414zM56.769358 313.156528V697.186772c0 86.228316 70.149614 156.42892 156.479909 156.42892h384.030244c78.444913 0 142.244829-63.748926 142.244829-142.193839a42.678248 42.678248 0 1 0-85.357495 0 56.959319 56.959319 0 0 1-56.888334 56.888333H213.249267a71.229392 71.229392 0 0 1-71.122414-71.122414v-384.031244a56.893332 56.893332 0 0 1 56.888333-56.888333 42.678248 42.678248 0 1 0 0-85.357495c-78.445912 0-142.245828 63.800916-142.245828 142.245828z"  horiz-adv-x="1024" />

    
    <glyph glyph-name="ic_cd" unicode="&#59111;" d="M57.165721 380.284518c0 252.834765 205.705996 458.540761 458.591761 458.540761s458.590761-205.705996 458.59076-458.540761c0-252.885765-205.705996-458.591761-458.59076-458.591761S57.165721 127.398753 57.165721 380.284518z m85.454583 0c0-205.807995 167.328183-373.188178 373.136178-373.188178s373.187178 167.379183 373.187177 373.188178c0 205.757995-167.379183 373.086178-373.187177 373.086178s-373.136178-167.329183-373.136178-373.086178z m252.475767 0c0 66.470675 54.138736 120.660411 120.660411 120.660411a120.81041 120.81041 0 0 0 120.66041-120.660411c0-66.573675-54.087736-120.76241-120.66041-120.76241-66.521675-0.001-120.659411 54.188735-120.659411 120.76241z m85.399583 0a35.281828 35.281828 0 1 1 35.256828 35.256828 35.378827 35.378827 0 0 1-35.252828-35.256828z m252.475767 0a214.276954 214.276954 0 0 1-12.843937 73.78864 218.398934 218.398934 0 0 1-143.3243 134.680342 42.773791 42.773791 0 0 0-29.013859 52.961742c6.499968 22.46389 30.087853 35.154828 52.399744 29.217857l0.613997-0.152999a304.520513 304.520513 0 0 0 199.616026-187.591084 301.256529 301.256529 0 0 0 18.011912-102.899498 42.727791 42.727791 0 1 0-85.454583 0z"  horiz-adv-x="1024" />

    
    <glyph glyph-name="ic_circle_next" unicode="&#59112;" d="M57.166721 380.233518c0 252.834765 205.705996 458.591761 458.591761 458.591761 252.833765 0 458.590761-205.756995 458.59076-458.591761S768.592247-78.307243 515.758482-78.307243c-252.885765 0-458.591761 205.705996-458.591761 458.540761z m85.399583 0c0-205.756995 167.379183-373.137178 373.188178-373.137178 205.756995 0 373.187178 167.379183 373.187177 373.137178S721.515477 753.425696 515.758482 753.425696c-205.808995 0-373.192178-167.435182-373.192178-373.192178z m291.011579-186.518089a42.408793 42.408793 0 0 0-2.916986 57.566719l2.814986 3.069985 125.930386 125.881385-125.828386 125.828386a42.567792 42.567792 0 0 0-2.967986 57.106721l5.423974 5.986971 0.306998-0.306999a42.490793 42.490793 0 0 0 54.394735 0.511998l3.069985-2.864986L649.875827 410.427371a42.581792 42.581792 0 0 0 2.916986-57.157721l-2.762987-3.069985L493.907588 194.128427a42.685792 42.685792 0 0 0-60.330705-0.408998z"  horiz-adv-x="1024" />

    
    <glyph glyph-name="ic_chat_warning" unicode="&#59113;" d="M475.19837-51.49562L338.691359 104.512822H208.785446c-86.263091 0-156.358288 70.099195-156.358288 156.316306V687.256733c0 86.166134 70.095196 156.316306 156.358288 156.316306h596.937674c86.209115 0 156.304312-70.150172 156.304312-156.316306v-426.427605c0-86.217112-70.095196-156.316306-156.30731-156.316306H675.814209L539.358175-51.49562a42.676246 42.676246 0 0 0-64.159805 0zM137.717677 687.256733v-426.427605a71.099755 71.099755 0 0 1 71.068769-71.01979H358.03186a42.797193 42.797193 0 0 0 32.079902-14.582592l117.115533-133.956133 117.166511 133.956133a42.796193 42.796193 0 0 0 32.079902 14.582592h149.246414a71.098755 71.098755 0 0 1 71.067769 71.01979V687.256733a71.175722 71.175722 0 0 1-71.068769 71.068768h-596.937674a71.175722 71.175722 0 0 1-71.063771-71.068768z m312.665598-355.358837a56.84402 56.84402 0 1 0 56.84402-56.844019 56.851017 56.851017 0 0 0-56.84402 56.844019z m56.84402 0h28.447499l-28.447499 0.053977z m-56.84402 170.594032V616.185965a56.84402 56.84402 0 1 0 113.68704 0v-113.694037a56.84402 56.84402 0 1 0-113.68704 0z"  horiz-adv-x="1024" />

    
    <glyph glyph-name="ic_face_happy" unicode="&#59114;" d="M327.09592-70.80173c-148.923459 0-270.108607 121.141157-270.108607 270.072614V568.939073c0 148.931457 121.185148 270.072614 270.108607 270.072614h369.596204c148.922459 0 270.108607-121.141157 270.108606-270.072614v-369.668189c0-148.931457-121.186147-270.072614-270.108606-270.072614zM142.297818 568.939073v-369.668189c0-101.898103 82.905998-184.8081 184.798102-184.8081h369.596204c101.943094 0 184.849091 82.909997 184.849091 184.8081V568.939073c0 101.898103-82.905998 184.8081-184.849091 184.8081H327.09592c-101.892104 0-184.798102-82.910997-184.798102-184.8081z m89.814581-246.530442a42.627258 42.627258 0 0 0 76.150383 38.333139c2.712444-5.16894 62.845112-118.787639 203.63124-118.787639 142.62875 0 202.914387 117.353933 203.528261 118.530691a42.638256 42.638256 0 1 0 76.304351-38.077191c-3.429297-6.755615-85.106547-165.766005-279.832612-165.766005-194.675076-0.002999-276.455305 159.01139-279.781623 165.767005zM568.751362 497.850652a56.85734 56.85734 0 1 0 56.857339-56.911329 56.864338 56.864338 0 0 0-56.857339 56.911329z m-227.479349 0a56.882335 56.882335 0 1 0 56.85634-56.911329 56.897332 56.897332 0 0 0-56.85634 56.911329z"  horiz-adv-x="1024" />

    
    <glyph glyph-name="ic_file_reduce" unicode="&#59115;" d="M241.692434-71.016686c-86.279306 0-156.479909 70.149614-156.479909 156.42892V682.81072c0 86.228316 70.200603 156.42892 156.479909 156.42892h355.560083a42.282329 42.282329 0 0 0 30.158815-12.497437l241.786415-241.782415a42.591265 42.591265 0 0 0 12.544427-30.161815v-241.783415a42.678248 42.678248 0 1 0-85.357495 0V497.90964H583.069425a42.700243 42.700243 0 0 0-42.704242 42.653252V753.933135H241.692434a71.229392 71.229392 0 0 1-71.122414-71.122415v-597.398486a71.163406 71.163406 0 0 1 71.122414-71.122415h256.019496a42.653253 42.653253 0 0 0 0-85.305505z m384.030244 654.235831h124.574452l-124.574452 124.579451z m71.122414-540.459164a42.653253 42.653253 0 1 0 0 85.305506h199.132163a42.653253 42.653253 0 0 0 0-85.305506z"  horiz-adv-x="1024" />

    
    <glyph glyph-name="ic_eye_off" unicode="&#59116;" d="M69.525742-58.365281a42.627258 42.627258 0 0 0 0 60.338626l118.984599 119.039588c-92.373056 95.804353-131.523028 217.301436-131.523028 263.105043 0 80.963396 118.728651 398.060367 454.906709 398.060366 97.388028 0 184.030259-27.226416 258.38901-79.427711l123.744622 123.747622a42.648254 42.648254 0 0 0 60.287637-60.338626L129.811379-58.365281a42.748233 42.748233 0 0 0-60.287637 0z m72.772076 442.483257c0-20.419812 27.277406-120.216346 106.498159-202.869396l116.628083 116.635081c-38.433118 65.353597-30.193808 150.82107 25.844699 206.809587 55.988518 56.039508 141.400002 64.330807 206.857578 25.89469L708.564689 641.030289c-57.112288 36.387538-122.720833 55.835549-196.670667 55.835549-289.146702 0-369.596204-280.91539-369.596204-312.747862z m309.258578 60.287636c-22.057476-22.006487-27.994259-53.020127-20.828729-81.219344l102.046073 102.048073a92.780973 92.780973 0 0 1-22.789327 2.871411c-21.224647 0-42.248336-7.516459-58.427018-23.70014z m-64.536765-442.279298a42.633257 42.633257 0 1 0 22.313424 82.294123c32.091419-8.700216 66.532356-13.051323 102.560967-13.051323 289.146702 0 369.646194 280.812412 369.646193 312.747862 0 9.774995-7.932373 47.237313-31.319577 94.934531a42.685246 42.685246 0 0 0 76.662279 37.564296c24.309015-49.487851 39.917814-101.535177 39.917813-132.497827 0-81.066375-118.729651-398.061366-454.906708-398.061367-43.602058 0-85.618442 5.428887-124.874391 16.069705z"  horiz-adv-x="1024" />

    
    <glyph glyph-name="ic_face_sad" unicode="&#59117;" d="M327.09592-70.80173c-148.923459 0-270.108607 121.141157-270.108607 270.072614V568.939073c0 148.931457 121.185148 270.072614 270.108607 270.072614h369.596204c148.922459 0 270.108607-121.141157 270.108606-270.072614v-369.668189c0-148.931457-121.186147-270.072614-270.108606-270.072614zM142.297818 568.939073v-369.668189c0-101.898103 82.905998-184.8081 184.798102-184.8081h369.596204c101.943094 0 184.849091 82.909997 184.849091 184.8081V568.939073c0 101.898103-82.905998 184.8081-184.849091 184.8081H327.09592c-101.892104 0-184.798102-82.910997-184.798102-184.8081z m108.903666-407.79637a42.614261 42.614261 0 0 0-19.089085 57.218266c3.378307 6.755615 85.106547 165.718015 279.781623 165.718015 194.726066 0 276.403316-158.967399 279.832612-165.718015a42.650253 42.650253 0 1 0-76.304351-38.128181c-2.405507 4.606055-62.537175 118.581681-203.528261 118.581682-142.57776 0-202.858398-117.455912-203.477272-118.582682a42.504283 42.504283 0 0 0-57.215266-19.090085zM568.751362 497.850652a56.85734 56.85734 0 1 0 56.857339-56.911329 56.897332 56.897332 0 0 0-56.857339 56.911329z m-227.42836 0a56.85734 56.85734 0 1 0 56.85734-56.911329 56.864338 56.864338 0 0 0-56.85734 56.911329z"  horiz-adv-x="1024" />

    
    <glyph glyph-name="ic_draft" unicode="&#59118;" d="M866.730756 837.950968h-709.35151a99.455201 99.455201 0 0 1-99.309211-99.310211v-56.747121c0-39.4973 23.323406-73.376984 56.747121-89.38089v-392.982136c0-86.087115 70.028213-156.059332 156.059332-156.059332h198.617422v-70.935151a42.561091 42.561091 0 0 1 85.122182 0v70.935151h198.618422c86.087115 0 156.057332 69.972217 156.057332 156.059332V592.512746c33.423715 15.998906 56.749121 49.88159 56.749121 89.38089v56.747121a99.457201 99.457201 0 0 1-99.310211 99.310211z m-723.54054-99.310211a14.267025 14.267025 0 0 0 14.187031 14.18803h709.351509a14.230027 14.230027 0 0 0 14.18803-14.18803v-56.747121a14.199029 14.199029 0 0 0-14.18803-14.18803h-709.351509a14.230027 14.230027 0 0 0-14.187031 14.18803z m680.980449-539.109147a70.960149 70.960149 0 0 0-70.935151-70.935151H270.874488a70.995147 70.995147 0 0 0-70.935151 70.935151V582.582425h624.231328z"  horiz-adv-x="1024" />

    
    <glyph glyph-name="ic_fly" unicode="&#59119;" d="M961.566273-6.567301L550.140398 816.285449c-14.417014 28.885025-61.743779 28.885025-76.156794 0L62.558728-6.567301a42.57309 42.57309 0 0 1 56.577133-57.372078l392.929139 189.710031 392.92514-189.709031a42.57509 42.57509 0 0 1 56.580132 57.372078zM554.621091 199.772594V343.287783a42.560091 42.560091 0 1 1-85.120181 0v-143.515189l-275.001201-132.790923 317.565291 635.126583 317.565292-635.129583z"  horiz-adv-x="1024" />

    
    <glyph glyph-name="ic_chart_up" unicode="&#59120;" d="M838.254366-70.024025a99.465067 99.465067 0 0 0-99.357113 99.357114v709.893581a99.498053 99.498053 0 0 0 99.357113 99.357113h28.413736a99.498053 99.498053 0 0 0 99.357113-99.357113v-709.893581a99.465067 99.465067 0 0 0-99.357113-99.357114z m-14.208867 809.250695v-709.893581a14.243852 14.243852 0 0 1 14.207868-14.208867h28.414735a14.243852 14.243852 0 0 1 14.209866 14.208867v709.893581a14.276838 14.276838 0 0 1-14.209866 14.205868h-28.413736a14.276838 14.276838 0 0 1-14.208867-14.205868z m-326.481077-809.250695a99.476062 99.476062 0 0 0-99.406093 99.357114v312.345179a99.557027 99.557027 0 0 0 99.406093 99.412089h28.365756a99.586015 99.586015 0 0 0 99.406092-99.412089v-312.345179a99.509048 99.509048 0 0 0-99.407092-99.357114z m-14.207868 411.702293v-312.345179a14.210866 14.210866 0 0 1 14.207868-14.208867h28.365756a14.243852 14.243852 0 0 1 14.207867 14.208867v312.345179a14.276838 14.276838 0 0 1-14.208867 14.213864h-28.364756a14.243852 14.243852 0 0 1-14.207868-14.213864z m-326.533055-411.702293a99.509048 99.509048 0 0 0-99.406092 99.357114V171.3238a99.542034 99.542034 0 0 0 99.406092 99.357113h28.364757a99.509048 99.509048 0 0 0 99.406092-99.357113v-141.990711a99.476062 99.476062 0 0 0-99.405092-99.357114z m-14.207867 241.347825v-141.990711a14.243852 14.243852 0 0 1 14.208867-14.208867h28.364757a14.210866 14.210866 0 0 1 14.207867 14.208867V171.3238a14.243852 14.243852 0 0 1-14.207867 14.208867h-28.365757a14.276838 14.276838 0 0 1-14.207867-14.208867z m-72.67663 225.402707a42.572624 42.572624 0 0 0 0 60.259989l296.429049 296.446042H270.386481a42.575623 42.575623 0 0 0 0 85.151245h198.761207a42.58162 42.58162 0 0 0 42.573623-42.575622V597.235959a42.573623 42.573623 0 1 0-85.147247 0v95.93559L130.145015 396.725507a42.566627 42.566627 0 0 0-60.206013 0z"  horiz-adv-x="1024" />

    
    <glyph glyph-name="ic_folder_reduce" unicode="&#59121;" d="M213.38324-70.80173c-86.283305 0-156.394927 70.115621-156.394927 156.351936V682.658752c0 86.186325 70.111622 156.352935 156.394927 156.352935h231.009625a156.341938 156.341938 0 0 0 137.306841-81.477291l48.515051-89.102727h180.243036c86.181326 0 156.343937-70.17061 156.343937-156.403925v-142.124853a42.630257 42.630257 0 1 0-85.260515 0V512.027744a71.1924 71.1924 0 0 1-71.085422 71.085422H142.298818v-497.56296a71.09442 71.09442 0 0 1 71.085422-71.085422h312.735864a42.632257 42.632257 0 0 0 0-85.264515z m-71.085422 753.460482v-14.228083h390.886837l-26.355595 48.262103a71.154408 71.154408 0 0 1-62.435195 37.053401H213.38324a71.159407 71.159407 0 0 1-71.084422-71.087421z m582.853469-625.512721a42.632257 42.632257 0 0 0 0 85.264514H924.171473a42.632257 42.632257 0 0 0 0-85.264514z"  horiz-adv-x="1024" />

    
    <glyph glyph-name="ic_coupon" unicode="&#59122;" d="M901.531053 510.023603c40.226637 20.737049 65.225846 58.462765 65.225846 98.402526V682.059345a99.57302 99.57302 0 0 1-99.428083 99.428083H157.136364a99.572021 99.572021 0 0 1-99.426083-99.428083v-73.632217c0-39.93976 24.940235-77.666476 65.05392-98.402525a142.075674 142.075674 0 0 0 0.054976-252.544992c-40.168662-20.737049-65.108896-58.40479-65.108896-98.402525v-73.577241a99.535037 99.535037 0 0 1 99.426083-99.426084h710.193452a99.536036 99.536036 0 0 1 99.428083 99.426084v73.576241c0 39.998735-24.999209 77.666476-65.171869 98.402526a142.171633 142.171633 0 0 0-0.058975 252.544991z m-162.035059-126.245507a226.402276 226.402276 0 0 1 123.005906-201.977818c11.362096-5.90745 19.032785-15.054502 19.032785-22.724192v-73.577241a14.208867 14.208867 0 0 0-14.204869-14.202869h-710.193452a14.208867 14.208867 0 0 0-14.204868 14.202869v73.577241c0 7.725665 7.672688 16.816741 19.032784 22.724192a227.261905 227.261905 0 0 1-0.054976 403.901659c-11.30612 5.90745-18.977808 14.999526-18.977808 22.724192V682.059345a14.245851 14.245851 0 0 0 14.204868 14.204869h710.193452a14.245851 14.245851 0 0 0 14.204869-14.204869v-73.632217c0-7.670689-7.670689-16.816741-19.09176-22.724191a226.430263 226.430263 0 0 1-122.946931-201.922842z"  horiz-adv-x="1024" />

    
    <glyph glyph-name="ic_file" unicode="&#59123;" d="M897.654911 584.925795L655.856498 826.723207a42.491286 42.491286 0 0 1-30.154816 12.516433H270.118605c-86.248312 0-156.457914-70.205602-156.457914-156.456914v-597.377491c0-86.3073 70.209602-156.456914 156.457914-156.456914h483.593825c86.3073 0 156.457914 70.149614 156.457914 156.456914V554.772978a42.591265 42.591265 0 0 1-12.515433 30.152817z m-118.908615-1.70665H654.149848v124.53446z m-25.034866-568.934325H270.118605a71.185401 71.185401 0 0 0-71.118416 71.116416v597.377491a71.218395 71.218395 0 0 0 71.118416 71.116416h298.690745v-213.346248a42.685246 42.685246 0 0 1 42.670249-42.670249h213.350246v-412.47741a71.14341 71.14341 0 0 0-71.118415-71.116416z"  horiz-adv-x="1024" />

    
    <glyph glyph-name="ic_hook" unicode="&#59124;" d="M395.586908 49.826376c-50.575171 0-96.480619 23.293631-126.381442 64.18245l-147.509666 202.014761a42.713321 42.713321 0 0 0 68.971141 50.404218l147.508666-202.010763a70.273785 70.273785 0 0 1 57.467286-29.160026h0.968735a70.062842 70.062842 0 0 1 57.63524 30.697606l378.741438 548.009154a42.734315 42.734315 0 1 0 70.280783-48.637701L524.587635 117.316921a156.994072 156.994072 0 0 0-126.949288-67.490545z"  horiz-adv-x="1024" />

    
    <glyph glyph-name="ic_confirm" unicode="&#59125;" d="M56.529619 391.071067c0 251.268294 204.418104 455.635412 455.634413 455.635412s455.634412-204.367118 455.634412-455.635412c0-251.217308-204.418104-455.584426-455.634412-455.584427S56.529619 139.853759 56.529619 391.071067z m85.447636 0c0-204.111188 166.076588-370.187777 370.186777-370.187777 204.161175 0 370.237763 166.076588 370.237763 370.187777 0 204.162174-166.076588 370.238763-370.237763 370.238762-204.110189 0-370.186777-166.076588-370.186777-370.238762z m314.264068-170.741313a99.104901 99.104901 0 0 0-86.165439 57.255344l-24.706244 52.642605a42.708322 42.708322 0 0 0 77.348849 36.240091l24.655259-52.642606a13.833217 13.833217 0 0 1 12.353622-8.149771c2.716257 0.204944 9.175491 0.563846 12.917468 7.125052l130.656273 227.689741a42.696325 42.696325 0 1 0 74.067748-42.488382L546.712585 270.306088a99.200875 99.200875 0 0 0-86.370383-50.079306c-1.435607 0-2.717257 0.050986-4.100879 0.102972z"  horiz-adv-x="1024" />

    
    <glyph glyph-name="ic_folder" unicode="&#59126;" d="M810.602763 668.561643H630.362726l-48.640025 89.151717a156.473911 156.473911 0 0 1-137.342834 81.52828h-231.152595c-86.252312 0-156.458914-70.205602-156.458914-156.456914v-597.377491c0-86.3073 70.205602-156.456914 156.458914-156.456914h597.377491c86.3073 0 156.457914 70.149614 156.457914 156.456914V512.102729c-0.002 86.250312-70.152613 156.458914-156.459914 156.458914z m-597.377491 85.340498h231.152596a71.022435 71.022435 0 0 0 62.4122-37.092393l26.341598-48.245106H142.106857V682.782726a71.215395 71.215395 0 0 0 71.118415 71.116416z m668.495906-668.500905a71.14341 71.14341 0 0 0-71.118415-71.116416h-597.377491a71.178403 71.178403 0 0 0-71.118415 71.116416v497.817909h668.495906a71.185401 71.185401 0 0 0 71.118415-71.116416z"  horiz-adv-x="1024" />

    
    <glyph glyph-name="ic_filebox" unicode="&#59127;" d="M965.778351 404.32764c-0.283925 1.93449 0.058984 3.810995-0.45488 5.745485l-90.220211 315.716755c-19.057975 66.728406-80.892671 113.432091-150.407342 113.432091H299.014158c-69.512671 0-131.350367-46.703686-150.405342-113.432091l-90.165226-315.716755c-0.56885-1.93449-0.170955-3.810995-0.45488-5.745485-0.283925-2.04746-1.194685-3.86898-1.194685-5.973425v-312.871504c0-86.296246 70.140506-156.437752 156.436752-156.437752h597.306507c86.239261 0 156.436752 70.140506 156.436752 156.437752V398.354215c-0.001 2.104445-0.90876 3.925965-1.195685 5.973425zM230.579203 702.298074a71.481152 71.481152 0 0 0 68.434955 51.596395h425.68176a71.351187 71.351187 0 0 0 68.375971-51.596395l74.693306-261.279108h-194.948598c-34.47491 0-67.58218-18.488125-93.238415-51.880321-32.651391-42.607766-102.791897-42.607766-135.502272 0-25.655235 33.391196-58.763506 51.880321-93.175433 51.880321H156.003866z m651.063333-616.815363a71.170234 71.170234 0 0 0-71.107251-71.107251H213.229777a71.133244 71.133244 0 0 0-71.107251 71.107251V355.689465h208.772953c6.998155 0 16.780575-7.112125 25.543265-18.602095a170.769973 170.769973 0 0 1 270.833588 0c8.76069 11.48997 18.54511 18.602095 25.543265 18.602095h208.826939z"  horiz-adv-x="1024" />

    
    <glyph glyph-name="ic_forward" unicode="&#59128;" d="M421.567546-10.203158a42.674248 42.674248 0 0 0-23.387204 38.058196V739.288138a42.640255 42.640255 0 0 0 67.962062 34.369952L949.452288 417.967034a42.771229 42.771229 0 0 0 0-68.791892L466.142404-6.565903a43.015179 43.015179 0 0 0-25.333804-8.247309 42.380309 42.380309 0 0 0-19.241054 4.610054zM483.490847 112.218736l368.724382 271.378347-368.724382 271.326357zM80.374517-10.203158a42.674248 42.674248 0 0 0-23.387204 38.058196V739.288138a42.640255 42.640255 0 0 0 67.962063 34.369952l184.798102-135.945121a42.672249 42.672249 0 1 0-50.510642-68.791892l-116.939018 86.003362v-542.705703l116.938018 86.054353a42.672249 42.672249 0 0 0 50.510642-68.791893L124.949376-6.565903a42.86321 42.86321 0 0 0-25.280816-8.247309 42.430298 42.430298 0 0 0-19.294043 4.610054z"  horiz-adv-x="1024" />

    
    <glyph glyph-name="ic_home" unicode="&#59129;" d="M948.543896 547.199969L536.116641 831.631972a42.460804 42.460804 0 0 1-48.465221 0L75.226165 547.199969A42.653753 42.653753 0 0 1 56.794025 512.101223v-426.649504c0-86.297246 70.140506-156.437752 156.436752-156.437752h597.306507c86.295246 0 156.436752 70.140506 156.436752 156.437752V512.101223a42.656753 42.656753 0 0 1-18.43014 35.098746zM426.497545 14.402452V170.839205a71.170234 71.170234 0 0 0 71.107251 71.103252h28.4445a71.207225 71.207225 0 0 0 71.10825-71.107251V14.402452z m455.14799 71.051266a71.170234 71.170234 0 0 0-71.107251-71.10825H682.486048V170.839205c0 86.240261-70.140506 156.437752-156.436752 156.437751h-28.4445c-86.295246 0-156.436752-70.197491-156.436752-156.437751v-156.494737H213.230777a71.134244 71.134244 0 0 0-71.107251 71.108251V489.687133L511.88503 744.709891l369.760505-255.022758z"  horiz-adv-x="1024" />

    
    </font>
</defs>
</svg>
